<svg width="256" height="86" viewBox="0 0 256 86" fill="none" xmlns="http://www.w3.org/2000/svg">
<path d="M212.781 69.1083C212.624 69.1083 212.466 69.1083 212.308 69.1083L212.005 85.9939C212.26 85.9939 212.521 86 212.781 86H212.793V69.1083H212.781ZM214.236 69.0659C214.072 69.078 213.915 69.0841 213.757 69.0901L214.388 85.9697C214.654 85.9576 214.921 85.9455 215.176 85.9333L214.236 69.072V69.0659ZM210.872 69.0356L209.635 85.8788C209.896 85.897 210.162 85.9152 210.423 85.9273L211.351 69.0598C211.187 69.0538 211.029 69.0417 210.872 69.0296M215.667 68.9447C215.509 68.9629 215.352 68.9811 215.188 68.9932L216.758 85.8122C217.019 85.7879 217.285 85.7576 217.546 85.7334L215.667 68.9508V68.9447ZM209.441 68.8902L207.265 85.6365C207.525 85.6668 207.792 85.7031 208.053 85.7334L209.914 68.9447C209.756 68.9266 209.599 68.9084 209.435 68.8902M217.091 68.7448C216.934 68.769 216.776 68.7993 216.619 68.8175L219.122 85.5214C219.383 85.485 219.65 85.4426 219.91 85.3941L217.091 68.7387V68.7448ZM208.016 68.666L204.9 85.2669C205.161 85.3154 205.428 85.3638 205.689 85.4062L208.489 68.7509C208.332 68.7266 208.174 68.6963 208.016 68.666ZM218.504 68.4661C218.346 68.5024 218.189 68.5388 218.031 68.5691L221.486 85.1033C221.741 85.0488 221.996 84.9943 222.256 84.9337L218.51 68.4661H218.504ZM206.616 68.3631L202.56 84.764C202.815 84.8246 203.082 84.8913 203.342 84.9458L207.083 68.4722C206.925 68.4358 206.774 68.3995 206.616 68.3631ZM219.892 68.1086C219.741 68.151 219.583 68.1935 219.431 68.2359L223.802 84.552C224.057 84.4853 224.317 84.4126 224.572 84.3399L219.892 68.1086ZM205.228 67.9753L200.263 84.1218C200.517 84.2006 200.772 84.2733 201.021 84.346L205.689 68.1086C205.531 68.0662 205.379 68.0177 205.228 67.9693M221.262 67.6724C221.111 67.7269 220.959 67.7754 220.807 67.8299L226.094 83.8734C226.348 83.7886 226.603 83.7038 226.845 83.6189L221.256 67.6785L221.262 67.6724ZM203.864 67.5149L197.99 83.3523C198.238 83.4432 198.493 83.5341 198.741 83.6189L204.318 67.6724C204.167 67.6179 204.015 67.5633 203.864 67.5088M222.602 67.1574C222.456 67.218 222.311 67.2786 222.159 67.3331L228.343 83.0555C228.591 82.9585 228.84 82.8555 229.082 82.7586L222.602 67.1574ZM202.524 66.9757L195.765 82.4557C196.007 82.5647 196.256 82.6677 196.504 82.7707L202.973 67.1635C202.827 67.1029 202.676 67.0423 202.53 66.9757M223.911 66.5758C223.766 66.6424 223.626 66.7151 223.481 66.7757L230.531 82.1285C230.774 82.0194 231.016 81.9043 231.259 81.7892L223.911 66.5818V66.5758ZM201.221 66.3637L193.595 81.4378C193.831 81.559 194.073 81.6801 194.316 81.7952L201.651 66.5818C201.506 66.5152 201.366 66.4425 201.221 66.3698M225.19 65.9154C225.051 65.9941 224.912 66.0668 224.772 66.1456L232.677 81.0743C232.908 80.9531 233.144 80.8259 233.374 80.6926L225.19 65.9154ZM199.954 65.6791L191.491 80.2988C191.721 80.432 191.952 80.5653 192.188 80.6926L200.378 65.9154C200.239 65.8366 200.099 65.7579 199.96 65.6791M226.427 65.1823C226.294 65.2671 226.154 65.3519 226.021 65.4367L234.756 79.8928C234.981 79.7595 235.211 79.6202 235.429 79.4808L226.427 65.1823ZM198.729 64.9217L189.448 79.0385C189.666 79.184 189.897 79.3294 190.127 79.4748L199.129 65.1823C198.996 65.0975 198.863 65.0126 198.729 64.9217ZM227.621 64.3825C227.488 64.4734 227.361 64.5643 227.227 64.6552L236.757 78.6023C236.975 78.4569 237.193 78.3054 237.406 78.154L227.621 64.3825ZM197.547 64.0978L187.502 77.6814C187.714 77.8389 187.926 77.9904 188.145 78.1479L197.941 64.3825C197.814 64.2916 197.68 64.1947 197.553 64.0978M228.767 63.5222C228.64 63.6191 228.519 63.7161 228.391 63.813L238.685 77.2088C238.897 77.0452 239.109 76.8816 239.315 76.7181L228.773 63.5161L228.767 63.5222ZM196.413 63.2071L185.623 76.2091C185.829 76.3788 186.035 76.5484 186.241 76.712L196.783 63.5101C196.662 63.4131 196.535 63.3101 196.413 63.2071ZM229.87 62.5891C229.749 62.6982 229.634 62.8012 229.513 62.9042L240.54 75.7002C240.74 75.5305 240.94 75.3548 241.134 75.1791L229.876 62.5831L229.87 62.5891ZM195.328 62.2559L183.834 74.6399C184.028 74.8217 184.222 74.9974 184.416 75.1731L195.686 62.5831C195.565 62.4801 195.443 62.371 195.328 62.2559ZM230.913 61.6016C230.804 61.7167 230.689 61.8258 230.574 61.9348L242.292 74.1068C242.486 73.925 242.674 73.7372 242.862 73.5494L230.913 61.6016ZM194.298 61.2502L182.131 72.9738C182.313 73.1616 182.495 73.3494 182.683 73.5372L194.637 61.5955C194.522 61.4804 194.413 61.3653 194.298 61.2502ZM231.907 60.5595C231.798 60.6807 231.695 60.7958 231.586 60.9169L243.971 72.4103C244.153 72.2164 244.329 72.0226 244.504 71.8287L231.913 60.5595H231.907ZM193.328 60.1899L180.525 71.2167C180.694 71.4167 180.876 71.6166 181.046 71.8105L193.643 60.5534C193.534 60.4322 193.431 60.3171 193.328 60.1899ZM232.835 59.4568C232.732 59.584 232.635 59.7052 232.532 59.8324L245.535 70.6169C245.705 70.417 245.868 70.211 246.032 70.005L232.835 59.4568ZM192.425 59.0751L179.021 69.3628C179.179 69.5748 179.348 69.7869 179.518 69.9929L192.722 59.4507C192.619 59.3235 192.522 59.2023 192.425 59.0751ZM233.702 58.3117C233.611 58.4389 233.514 58.5722 233.417 58.6995L247.002 68.7448C247.16 68.5327 247.317 68.3146 247.469 68.1026L233.696 58.3117H233.702ZM191.582 57.9118L177.627 67.4361C177.772 67.6542 177.93 67.8723 178.082 68.0905L191.855 58.3056C191.764 58.1784 191.673 58.0451 191.582 57.9118ZM234.508 57.1121C234.423 57.2514 234.338 57.3847 234.247 57.518L248.378 66.7878C248.524 66.5697 248.669 66.3456 248.809 66.1214L234.514 57.1121H234.508ZM190.8 56.7001L176.336 65.4367C176.475 65.6609 176.614 65.8911 176.748 66.1093L191.048 57.106C190.964 56.9727 190.879 56.8334 190.8 56.7001ZM235.241 55.8761C235.163 56.0154 235.084 56.1548 235.005 56.2942L249.627 64.7582C249.76 64.5279 249.894 64.2916 250.021 64.0614L235.241 55.87V55.8761ZM190.091 55.452L175.16 63.3586C175.281 63.5888 175.408 63.8251 175.541 64.0554L190.321 55.864C190.242 55.7246 190.169 55.5853 190.091 55.4459M235.902 54.5917C235.829 54.7371 235.763 54.8825 235.69 55.0218L250.773 62.6437C250.894 62.4074 251.009 62.1711 251.124 61.9348L235.908 54.5917H235.902ZM189.46 54.1675L174.111 61.232C174.22 61.4683 174.335 61.7106 174.444 61.9469L189.66 54.6038C189.594 54.4584 189.521 54.313 189.454 54.1675M236.49 53.2769C236.43 53.4284 236.369 53.5738 236.302 53.7192L251.785 60.4868C251.894 60.2444 251.997 59.996 252.1 59.7476L236.49 53.2769ZM188.896 52.8467L173.171 59.0387C173.268 59.2872 173.371 59.5356 173.468 59.7779L189.072 53.2951C189.012 53.1497 188.951 53.0043 188.89 52.8528M237.006 51.9319C236.951 52.0834 236.896 52.2348 236.842 52.3863L252.688 58.2632C252.779 58.0148 252.87 57.7604 252.961 57.512L237.012 51.9319H237.006ZM188.405 51.4957L172.359 56.7849C172.444 57.0333 172.529 57.2878 172.613 57.5362L188.563 51.9501C188.508 51.7986 188.46 51.6471 188.405 51.4957ZM237.442 50.5626C237.4 50.7141 237.351 50.8716 237.309 51.0231L253.458 55.9973C253.537 55.7428 253.616 55.4883 253.689 55.2278L237.448 50.5626H237.442ZM187.993 50.1203L171.674 54.5008C171.741 54.7552 171.813 55.0097 171.886 55.2642L188.126 50.5869C188.084 50.4354 188.036 50.2779 187.999 50.1264M237.8 49.1691C237.763 49.3266 237.727 49.4781 237.691 49.6356L254.095 53.6889C254.155 53.4284 254.222 53.1679 254.277 52.9134L237.794 49.1752L237.8 49.1691ZM187.66 48.7268L171.116 52.1742C171.171 52.4348 171.225 52.6953 171.286 52.9497L187.763 49.1933C187.726 49.0358 187.696 48.8844 187.66 48.7268ZM238.079 47.7635C238.054 47.921 238.024 48.0785 237.994 48.2361L254.604 51.3563C254.652 51.0958 254.701 50.8353 254.743 50.5747L238.079 47.7635ZM187.411 47.3091L170.698 49.8235C170.74 50.084 170.783 50.3506 170.825 50.6111L187.49 47.7877C187.466 47.6302 187.435 47.4727 187.417 47.3151M238.279 46.3397C238.26 46.4972 238.242 46.6548 238.224 46.8183L254.98 49.0055C255.016 48.745 255.046 48.4724 255.077 48.2118L238.279 46.3458V46.3397ZM187.235 45.8792L170.407 47.4484C170.431 47.709 170.461 47.9755 170.486 48.2361L187.278 46.3518C187.26 46.1943 187.241 46.0368 187.229 45.8732M238.4 44.9038C238.388 45.0613 238.382 45.2249 238.37 45.3824L255.222 46.6245C255.24 46.3579 255.259 46.0913 255.271 45.8368L238.4 44.9038ZM187.138 44.4433L170.249 45.0855C170.261 45.3461 170.273 45.6127 170.286 45.8732L187.157 44.928C187.15 44.7705 187.138 44.6069 187.132 44.4494M238.442 43.4194V43.4618C238.442 43.6254 238.442 43.7829 238.442 43.9404L255.337 44.2494C255.337 43.9889 255.344 43.7223 255.344 43.4557V43.3649L238.442 43.4133V43.4194ZM170.231 42.7105C170.231 42.9589 170.225 43.2134 170.225 43.4618V43.486H183.756H187.12V43.4618C187.12 43.3103 187.12 43.1528 187.12 43.0013L170.225 42.7045L170.231 42.7105ZM255.271 41.0202L238.4 41.9774C238.412 42.135 238.418 42.2985 238.424 42.4621L255.307 41.8078C255.295 41.5473 255.283 41.2867 255.271 41.0202ZM170.334 40.3355C170.316 40.6021 170.298 40.8687 170.286 41.1292L187.163 42.0441C187.169 41.8865 187.181 41.723 187.193 41.5654L170.34 40.3355H170.334ZM255.065 38.6451L238.273 40.5415C238.291 40.699 238.309 40.8566 238.321 41.0202L255.143 39.4328C255.119 39.1722 255.089 38.9057 255.059 38.6451M170.577 37.9605C170.54 38.221 170.51 38.4876 170.48 38.7481L187.278 40.6082C187.296 40.4506 187.314 40.287 187.332 40.1295L170.571 37.9605H170.577ZM254.731 36.2822L238.072 39.1177C238.103 39.2752 238.127 39.4328 238.151 39.5903L254.859 37.0638C254.816 36.8033 254.774 36.5367 254.731 36.2822ZM170.952 35.6037C170.904 35.8642 170.855 36.1308 170.813 36.3913L187.478 39.1844C187.508 39.0268 187.532 38.8693 187.563 38.7118L170.952 35.6037ZM254.264 33.9375L237.788 37.706C237.824 37.8636 237.86 38.0211 237.891 38.1726L254.434 34.713C254.38 34.4525 254.325 34.192 254.264 33.9315M171.456 33.2711C171.389 33.5255 171.328 33.7921 171.274 34.0466L187.757 37.7727C187.793 37.6152 187.829 37.4637 187.866 37.3062L171.456 33.2711ZM253.664 31.6231L237.43 36.3186C237.472 36.4701 237.521 36.6276 237.557 36.7791L253.876 32.3865C253.81 32.132 253.737 31.8715 253.664 31.6231ZM172.092 30.9688C172.013 31.2232 171.941 31.4777 171.868 31.7322L188.114 36.3852C188.157 36.2338 188.205 36.0762 188.254 35.9248L172.098 30.9688H172.092ZM252.937 29.3511L236.993 34.9554C237.048 35.1069 237.096 35.2583 237.145 35.4098L253.191 30.1024C253.107 29.854 253.022 29.5995 252.937 29.3511ZM172.862 28.6907C172.771 28.9391 172.68 29.1936 172.589 29.448L188.545 35.0099C188.599 34.8584 188.654 34.707 188.708 34.5616L172.862 28.6967V28.6907ZM252.082 27.1215L236.478 33.6164C236.539 33.7618 236.599 33.9133 236.66 34.0587L252.379 27.8546C252.282 27.6122 252.185 27.3638 252.082 27.1215ZM173.759 26.4671C173.65 26.7095 173.547 26.9579 173.444 27.2124L189.06 33.6709C189.121 33.5195 189.181 33.3741 189.248 33.2287L173.759 26.4732V26.4671ZM251.1 24.9464L235.89 32.3077C235.957 32.4531 236.03 32.5986 236.096 32.7379L251.44 25.6613C251.33 25.419 251.215 25.1827 251.1 24.9464ZM174.778 24.3042C174.656 24.5405 174.541 24.7768 174.426 25.013L189.648 32.3441C189.721 32.1987 189.788 32.0533 189.866 31.9139L174.778 24.3042ZM250.003 22.8319L235.229 31.0293C235.308 31.1687 235.381 31.308 235.46 31.4474L250.385 23.5226C250.263 23.2924 250.136 23.0561 250.009 22.8259M175.917 22.2018C175.784 22.432 175.651 22.6623 175.523 22.8986L190.309 31.0718C190.388 30.9324 190.466 30.7931 190.545 30.6537L175.917 22.2018ZM248.79 20.7841L234.496 29.7994C234.581 29.9327 234.666 30.0721 234.75 30.2054L249.209 21.4566C249.069 21.2324 248.93 21.0082 248.79 20.7841ZM177.172 20.1661C177.027 20.3903 176.881 20.6144 176.742 20.8386L191.048 29.8297C191.133 29.6964 191.218 29.5571 191.309 29.4238L177.172 20.1661ZM247.463 18.8089L233.696 28.6059C233.787 28.7392 233.884 28.8664 233.968 28.9997L247.917 19.4572C247.772 19.2391 247.614 19.021 247.463 18.8089ZM178.53 18.2091C178.372 18.4212 178.215 18.6393 178.063 18.8513L191.843 28.6301C191.933 28.5029 192.03 28.3696 192.127 28.2423L178.53 18.2031V18.2091ZM246.026 16.9065L232.829 27.4547C232.926 27.5759 233.029 27.7031 233.126 27.8303L246.517 17.5245C246.359 17.3124 246.19 17.1064 246.026 16.9004M180.003 16.3309C179.833 16.5369 179.664 16.7429 179.5 16.9489L192.709 27.485C192.806 27.3578 192.91 27.2366 193.013 27.1094L180.003 16.3309ZM244.486 15.0889L231.895 26.3581C232.004 26.4793 232.107 26.5944 232.21 26.7216L245.001 15.6887C244.832 15.4888 244.656 15.2888 244.48 15.0949M181.573 14.5436C181.398 14.7375 181.216 14.9314 181.04 15.1313L193.637 26.3884C193.746 26.2672 193.849 26.146 193.958 26.0309L181.567 14.5436H181.573ZM242.849 13.3622L230.907 25.316C231.022 25.4311 231.137 25.5462 231.246 25.6613L243.407 13.9317C243.225 13.7439 243.037 13.556 242.849 13.3682M183.24 12.8472C183.052 13.0289 182.865 13.2167 182.677 13.3985L194.631 25.3342C194.74 25.219 194.862 25.11 194.977 25.0009L183.24 12.8472ZM241.116 11.7263L229.858 24.3224C229.98 24.4314 230.095 24.5405 230.216 24.6495L241.704 12.2595C241.51 12.0838 241.316 11.902 241.116 11.7263ZM184.998 11.2416C184.798 11.4113 184.598 11.587 184.404 11.7627L195.674 24.3526C195.795 24.2436 195.916 24.1406 196.038 24.0376L185.004 11.2477L184.998 11.2416ZM239.297 10.1935L228.761 23.4014C228.888 23.4984 229.01 23.6014 229.137 23.7044L239.915 10.6963C239.715 10.5267 239.503 10.3631 239.297 10.1935ZM186.847 9.73905C186.641 9.89657 186.429 10.0662 186.223 10.2237L196.771 23.4196C196.892 23.3227 197.02 23.2197 197.147 23.1227L186.841 9.73299L186.847 9.73905ZM237.387 8.75754L227.609 22.529C227.743 22.6199 227.87 22.7168 227.997 22.8077L238.03 9.218C237.818 9.06047 237.606 8.90901 237.387 8.75148M188.775 8.33949C188.557 8.4849 188.339 8.64242 188.126 8.79389L197.923 22.5532C198.05 22.4623 198.184 22.3715 198.317 22.2806L188.775 8.33949ZM235.405 7.43068L226.415 21.7353C226.548 21.8201 226.688 21.9049 226.821 21.9958L236.078 7.86691C235.854 7.7215 235.629 7.57609 235.405 7.43674M190.776 7.04898C190.551 7.18833 190.321 7.32768 190.103 7.46703L199.117 21.7535C199.25 21.6686 199.39 21.5838 199.523 21.5051L190.776 7.05504V7.04898ZM233.344 6.21894L225.172 21.0022C225.312 21.0809 225.451 21.1537 225.591 21.2385L234.041 6.61275C233.811 6.47946 233.58 6.34617 233.344 6.21894ZM192.849 5.87359C192.619 5.99477 192.382 6.122 192.152 6.24923L200.354 21.0204C200.493 20.9416 200.633 20.8689 200.772 20.7901L192.849 5.87359ZM231.216 5.11625L223.887 20.3357C224.033 20.4084 224.178 20.4751 224.317 20.5478L231.932 5.46766C231.695 5.34649 231.453 5.23137 231.21 5.11625M194.989 4.81332C194.746 4.92238 194.504 5.03749 194.267 5.15261L201.627 20.36C201.772 20.2933 201.912 20.2206 202.057 20.16L194.989 4.81938V4.81332ZM229.028 4.1408L222.572 19.748C222.717 19.8086 222.869 19.8692 223.014 19.9359L229.761 4.4498C229.519 4.34074 229.27 4.23774 229.028 4.1408ZM197.177 3.88028C196.929 3.97722 196.686 4.07416 196.444 4.17715L202.936 19.7723C203.082 19.7117 203.233 19.6511 203.379 19.5905L197.177 3.88028ZM226.785 3.28652L221.226 19.2391C221.377 19.2936 221.529 19.3482 221.68 19.4027L227.543 3.55917C227.294 3.46829 227.039 3.37741 226.791 3.28652M199.432 3.06841C199.184 3.15323 198.929 3.23805 198.681 3.32288L204.282 19.2573C204.434 19.2027 204.585 19.1543 204.737 19.1058L199.438 3.06841H199.432ZM224.499 2.56554L219.85 18.8029C220.001 18.8453 220.159 18.8938 220.31 18.9422L225.269 2.79577C225.015 2.71701 224.754 2.63824 224.499 2.56554ZM201.724 2.38378C201.469 2.45042 201.209 2.52313 200.954 2.59583L205.646 18.8211C205.798 18.7786 205.955 18.7302 206.107 18.6938L201.724 2.38378ZM222.184 1.97179L218.461 18.4454C218.619 18.4818 218.771 18.5181 218.928 18.5545L222.966 2.15355C222.711 2.09296 222.45 2.02631 222.19 1.97179M204.046 1.82638C203.785 1.8809 203.524 1.93543 203.27 1.99602L207.034 18.4636C207.192 18.4272 207.35 18.3909 207.501 18.3606L204.046 1.82638ZM219.838 1.51132L217.049 18.1728C217.207 18.197 217.364 18.2273 217.522 18.2576L220.626 1.65673C220.365 1.60826 220.098 1.55979 219.838 1.51738M206.398 1.40833C206.137 1.44468 205.876 1.48709 205.616 1.53556L208.447 18.1849C208.604 18.1546 208.762 18.1304 208.92 18.1061L206.398 1.40227V1.40833ZM217.473 1.18415L215.624 17.9728C215.782 17.991 215.946 18.0092 216.103 18.0274L218.267 1.27503C218.007 1.24474 217.74 1.20839 217.473 1.18415ZM208.768 1.11751C208.507 1.14174 208.235 1.17204 207.974 1.20233L209.865 17.9849C210.023 17.9668 210.181 17.9486 210.344 17.9365L208.768 1.11751ZM215.103 0.990275L214.194 17.8577C214.357 17.8638 214.515 17.8759 214.673 17.888L215.897 1.0448C215.636 1.02663 215.37 1.00845 215.109 0.996333M211.144 0.959981C210.884 0.972099 210.611 0.984216 210.35 0.996333L211.308 17.8577C211.466 17.8456 211.629 17.8395 211.787 17.8335L211.144 0.953922V0.959981ZM212.781 0.929688H212.745V17.8214H212.781C212.933 17.8214 213.078 17.8214 213.23 17.8214L213.521 0.935746C213.272 0.935746 213.03 0.929688 212.781 0.929688Z" fill="white"/>
<path d="M212.781 7.50941C192.91 7.50941 176.809 23.6074 176.809 43.4618C176.809 63.3162 192.916 79.4202 212.781 79.4202C232.647 79.4202 248.76 63.3222 248.76 43.4618C248.76 23.6013 232.653 7.50941 212.781 7.50941ZM199.257 32.6773C202.476 31.4474 205.695 30.7143 207.932 30.3144C205.325 30.0902 202.724 30.1266 200.172 30.4053C200.7 29.3692 201.348 28.4059 202.106 27.5395C204.264 27.3941 206.398 27.5395 208.471 27.7334C207.798 27.1517 206.161 26.2672 204.676 25.6007C204.67 25.6007 204.658 25.5947 204.652 25.5886C204.555 25.5462 204.452 25.5038 204.355 25.4614C204.361 25.4614 204.367 25.4553 204.373 25.4492C204.949 25.0251 205.561 24.6374 206.198 24.2981C207.992 24.395 209.726 24.9403 210.629 25.8067C210.629 25.8067 210.641 25.7219 210.666 25.5704C210.678 25.5038 210.69 25.425 210.714 25.3341C210.854 24.704 211.187 23.5771 211.927 22.7107C212.205 22.6865 212.496 22.6804 212.781 22.6804C213.066 22.6804 213.357 22.6865 213.642 22.7107H213.654C214.388 23.5771 214.721 24.7101 214.849 25.3341C214.873 25.425 214.885 25.5038 214.897 25.5704C214.921 25.7219 214.933 25.8067 214.933 25.8067C215.837 24.9403 217.57 24.4011 219.359 24.2981L221.183 25.4492C221.086 25.4917 220.996 25.5401 220.905 25.5947C220.899 25.5947 220.886 25.6007 220.88 25.6068C219.395 26.2732 217.758 27.1578 217.085 27.7394C219.159 27.5395 221.293 27.4001 223.451 27.5456C224.202 28.4119 224.857 29.3753 225.385 30.4113C222.832 30.1326 220.226 30.0963 217.625 30.3204C219.862 30.7203 223.081 31.4534 226.3 32.6833C226.597 33.6527 226.791 34.6645 226.87 35.7127C224.051 34.5555 221.396 33.9133 219.207 33.5679C221.42 34.9675 224.196 37.4152 226.518 40.1598C226.3 41.0807 225.985 41.9653 225.591 42.8014C222.857 39.5115 219.759 36.6397 217.346 35.5309C219.292 38.2573 221.474 44.1404 221.08 48.2482C220.729 48.5026 220.365 48.745 219.995 48.9631C219.516 46.1579 218.559 42.8438 216.51 39.9841C216.51 39.978 216.504 39.972 216.497 39.9598C215.57 38.6633 214.412 37.4637 212.981 36.4458C212.824 36.3307 212.781 36.2459 212.781 36.2277C211.314 37.2031 210.114 38.4512 209.138 39.8508C207.186 42.6378 206.131 46.0125 205.598 48.9752C205.586 48.9691 205.573 48.9631 205.561 48.951C205.185 48.7329 204.828 48.4966 204.476 48.236C204.082 44.1222 206.258 38.2392 208.21 35.5128C205.804 36.6215 202.706 39.4873 199.966 42.7771C199.572 41.941 199.257 41.0565 199.038 40.1416C201.354 37.397 204.137 34.9493 206.349 33.5497C204.155 33.8951 201.506 34.5373 198.687 35.6945C198.766 34.6464 198.96 33.6346 199.263 32.6652M220.692 57.5301L225.021 59.4022C225.281 59.5234 225.536 59.6931 225.797 59.8142C226.124 59.9718 226.458 60.1293 226.791 60.2868C225.942 61.6682 224.893 62.9102 223.687 63.9826C222.802 63.3586 221.814 62.6982 220.699 61.9832L216.37 59.3962C215.237 58.76 214.036 58.1178 212.781 57.4937C211.526 58.1239 210.332 58.76 209.199 59.3962L204.87 61.9832C203.755 62.6921 202.767 63.3586 201.882 63.9826C200.675 62.9102 199.626 61.6682 198.778 60.2868C199.111 60.1293 199.439 59.9718 199.772 59.8142C200.033 59.6931 200.287 59.5234 200.548 59.4022L204.876 57.5301C206.386 56.9242 207.883 56.3729 209.35 55.864C205.422 54.1009 201.045 52.5195 196.377 51.4229C196.377 51.3017 196.377 51.1806 196.389 51.0594C200.154 51.5986 206.052 52.671 212.787 54.7431C219.529 52.671 225.427 51.5986 229.192 51.0594L229.204 51.4229C224.53 52.5195 220.159 54.1009 216.231 55.864C217.698 56.3729 219.189 56.9242 220.705 57.5301" fill="white"/>
<path d="M155.821 57.742H0V58.9537H155.821V57.742Z" fill="white"/>
<path d="M0.139282 19.6692C0.139282 18.6937 0.44239 17.797 1.05467 16.9609C1.66694 16.1309 2.53989 15.416 3.67351 14.8101C4.80713 14.2103 6.15293 13.7559 7.7109 13.459V12.0534L9.96602 11.7626V20.4689C9.96602 21.5837 10.2267 22.3471 10.748 22.7652C11.2694 23.1832 12.2211 23.3892 13.6033 23.3892L14.1853 23.6558V25.9642L13.6033 26.2308C11.9908 26.2308 10.742 26.0126 9.8569 25.5643C8.97182 25.122 8.37167 24.395 8.05038 23.3892C6.9895 23.5649 6.04987 23.6558 5.23754 23.6558C3.67957 23.6558 2.4429 23.3044 1.52145 22.5955C0.600004 21.8867 0.139282 20.9173 0.139282 19.6752M2.29134 19.3481C2.29134 20.3538 3.27341 20.8627 5.23754 20.8627C5.64371 20.8627 6.062 20.8446 6.49847 20.8082C6.93494 20.7719 7.35323 20.7173 7.75939 20.6507L7.73515 16.137C6.67427 16.246 5.72858 16.4581 4.91019 16.7852C4.08574 17.1124 3.44315 17.5002 2.98849 17.9364C2.52777 18.3787 2.2974 18.8452 2.2974 19.342M3.90993 7.69717L5.71645 5.89168L7.52297 7.69717L5.71645 9.50267L3.90993 7.69717ZM7.78971 7.69717L9.59623 5.89168L11.4027 7.69717L9.59623 9.50267L7.78971 7.69717Z" fill="white"/>
<path d="M13.0155 23.65L13.5974 23.3834C14.6947 23.3834 15.4888 23.2864 15.9738 23.0926C16.4588 22.8987 16.7922 22.6079 16.968 22.2141C17.1074 21.9293 17.2044 21.5839 17.259 21.178L17.6288 17.5973H19.7505L19.5626 19.7724C19.5444 19.9481 19.5262 20.1844 19.508 20.4752C19.4898 20.766 19.4838 21.0023 19.4838 21.178C19.4838 21.9051 19.7566 22.4503 20.3082 22.826C20.8599 23.1956 21.751 23.3834 22.9877 23.3834L23.5697 23.65V25.9583L22.9877 26.2249H22.6179C21.557 26.2249 20.6416 26.0856 19.8839 25.8129C19.12 25.5403 18.5441 25.0677 18.1562 24.3952C17.8046 25.0132 17.259 25.4736 16.5376 25.7766C15.8101 26.0795 14.828 26.2249 13.5914 26.2249L13.0094 25.9583V23.65H13.0155ZM15.7555 13.0896L17.1862 12.9321C16.7982 12.4535 16.6042 11.8718 16.6042 11.1811C16.6042 10.4541 16.8467 9.85429 17.3378 9.37565C17.8227 8.89701 18.4411 8.66072 19.1807 8.66072C19.8354 8.66072 20.4658 8.81825 21.066 9.13936L20.7447 10.3875C20.5143 10.2966 20.2537 10.2299 19.9627 10.1754C19.6717 10.1209 19.4292 10.0966 19.2292 10.0966C18.8412 10.0966 18.5199 10.2118 18.2713 10.442C18.0228 10.6722 17.9015 10.963 17.9015 11.3205C17.9015 11.678 18.0349 11.9809 18.3017 12.2354C18.5684 12.4898 18.9018 12.6231 19.308 12.6231C19.4474 12.6231 19.7202 12.611 20.1203 12.5807C20.5204 12.5565 21.0296 12.508 21.648 12.4353V13.8954C20.8174 13.9682 19.9081 14.053 18.926 14.162C17.944 14.265 16.8831 14.3983 15.7555 14.5619V13.1018V13.0896Z" fill="white"/>
<path d="M22.4177 23.6497L22.9997 23.3831H28.8436L29.4256 23.6497V25.9581L28.8436 26.2246H22.9997L22.4177 25.9581V23.6497Z" fill="white"/>
<path d="M26.7218 30.7866L28.5283 28.9811L30.3348 30.7866L28.5283 32.5921L26.7218 30.7866ZM28.2616 23.6495L28.8436 23.3829C29.9408 23.3829 30.7349 23.2859 31.2199 23.0921C31.7049 22.8982 32.0383 22.6074 32.2141 22.2136C32.3535 21.9288 32.4505 21.5835 32.5051 21.1775L32.8749 17.5968H34.9966L34.8087 19.7719C34.7905 19.9476 34.7723 20.1839 34.7541 20.4747C34.736 20.7655 34.7299 21.0018 34.7299 21.1775C34.7299 21.9046 35.0027 22.4498 35.5543 22.8194C36.0999 23.189 36.9971 23.3768 38.2338 23.3768L38.8158 23.6434V25.9518L38.2338 26.2184H37.864C36.8031 26.2184 35.8878 26.079 35.13 25.8064C34.3662 25.5337 33.7903 25.0611 33.4023 24.3886C33.0446 25.0066 32.5112 25.4671 31.7837 25.77C31.0562 26.073 30.0742 26.2184 28.8375 26.2184L28.2555 25.9518V23.6434L28.2616 23.6495ZM30.5955 30.7866L32.402 28.9811L34.2086 30.7866L32.402 32.5921L30.5955 30.7866Z" fill="white"/>
<path d="M37.658 23.6495L38.24 23.3829C39.3372 23.3829 40.1314 23.2859 40.6164 23.0921C41.1013 22.8982 41.4348 22.6074 41.6106 22.2136C41.75 21.9288 41.847 21.5835 41.9015 21.1775L42.2713 17.5968H44.3931L44.2052 19.7719C44.187 19.9476 44.1688 20.1839 44.1506 20.4747C44.1324 20.7655 44.1263 21.0018 44.1263 21.1775C44.1263 21.9046 44.3991 22.4498 44.9508 22.8255C45.5024 23.1951 46.3936 23.3829 47.6303 23.3829L48.2122 23.6495V25.9578L47.6303 26.2244H47.2605C46.1996 26.2244 45.2842 26.0851 44.5264 25.8124C43.7626 25.5398 43.1928 25.0672 42.7987 24.3947C42.4411 25.0127 41.9076 25.4731 41.1801 25.7761C40.4527 26.079 39.4706 26.2244 38.2339 26.2244L37.652 25.9578V23.6495H37.658ZM37.9248 30.9199L39.8647 28.9811L41.8045 30.9199L39.8647 32.8587L37.9248 30.9199Z" fill="white"/>
<path d="M47.0603 23.6496L47.6423 23.383C49.079 23.383 50.0611 23.1528 50.6067 22.6923C51.1462 22.2319 51.4129 21.4685 51.4129 20.4082L51.3099 7.50921L53.6741 7.21839L53.6499 20.6202C53.6499 22.5287 53.177 23.9404 52.2313 24.8553C51.2856 25.7701 49.758 26.2246 47.6483 26.2246L47.0664 25.958V23.6496H47.0603Z" fill="white"/>
<path d="M61.1853 26.2245H58.9847L58.821 7.51518L61.1853 7.22437V26.2245Z" fill="white"/>
<path d="M71.1454 25.0554C71.1454 24.2435 71.2303 23.3771 71.4 22.4562C71.5697 21.5353 71.8304 20.4205 72.182 19.1118L74.2795 19.5359C73.9946 20.7416 73.7885 21.7049 73.6551 22.432C73.5217 23.159 73.4551 23.8315 73.4551 24.4495C73.4551 26.2187 74.0188 27.5577 75.1403 28.4725C76.2618 29.3874 77.8016 29.8418 79.7476 29.8418C81.6935 29.8418 83.1545 29.4722 84.2881 28.727C85.4217 27.9818 86.0643 26.976 86.228 25.7037C85.5369 25.8612 84.961 25.9763 84.5003 26.0369C84.0396 26.0975 83.5788 26.1278 83.1181 26.1278C81.5238 26.1278 80.2689 25.7582 79.3475 25.013C78.426 24.2678 77.9653 23.1893 77.9653 21.7776C77.9653 20.572 78.2017 19.4875 78.6685 18.512C79.1353 17.5365 79.7536 16.7671 80.5114 16.1915C81.2752 15.6159 82.0876 15.3312 82.9544 15.3312C84.0335 15.3312 84.9792 15.6947 85.7976 16.4217C86.6099 17.1488 87.2525 18.1848 87.7072 19.5238C88.1679 20.8688 88.3982 22.4623 88.3982 24.2981C88.3982 27.0427 87.6405 29.1147 86.131 30.5204C84.6155 31.926 82.4877 32.6288 79.7476 32.6288C77.0075 32.6288 74.9282 31.9745 73.4126 30.6658C71.8971 29.3571 71.1454 27.491 71.1454 25.0675M79.2141 11.2537L81.0206 9.44818L82.8271 11.2537L81.0206 13.0592L79.2141 11.2537ZM80.0931 21.3111C80.0931 22.0563 80.3841 22.5956 80.9721 22.9409C81.5541 23.2863 82.4088 23.4559 83.5243 23.4559C83.9304 23.4559 84.3366 23.4377 84.7488 23.4014C85.155 23.365 85.6339 23.3044 86.1795 23.2136C86.0037 21.5535 85.5975 20.2509 84.9549 19.3118C84.3184 18.3727 83.5667 17.9061 82.6998 17.9061C82.2755 17.9061 81.8633 18.0576 81.4632 18.3605C81.0631 18.6635 80.7357 19.0633 80.4811 19.5662C80.2265 20.0691 80.0931 20.6507 80.0931 21.3051M83.0939 11.2537L84.9004 9.44818L86.7069 11.2537L84.9004 13.0592L83.0939 11.2537Z" fill="white"/>
<path d="M91.4534 21.7657C91.4534 20.56 91.6898 19.4755 92.1566 18.5C92.6234 17.5246 93.2417 16.7551 93.9995 16.1795C94.7633 15.6039 95.5757 15.3192 96.4426 15.3192C97.5216 15.3192 98.4673 15.6827 99.2857 16.4098C100.098 17.1368 100.735 18.1122 101.195 19.3422C101.656 20.5721 101.886 21.9656 101.886 23.5227C101.886 25.3827 101.529 26.9034 100.825 28.1031C100.116 29.2966 99.0311 30.2236 97.5701 30.8779C96.1091 31.5323 94.2481 31.9806 91.9808 32.229L91.4231 29.5511C93.7934 29.23 95.6181 28.8059 96.8912 28.2788C98.1642 27.7456 99.0068 26.9398 99.413 25.8613C98.3158 26.0916 97.3761 26.2067 96.6002 26.2067C95.0058 26.2067 93.751 25.8189 92.8295 25.0495C91.9081 24.28 91.4473 23.1894 91.4473 21.7717M93.5509 21.3112C93.5509 22.0565 93.848 22.5957 94.442 22.941C95.0361 23.2864 95.8788 23.456 96.976 23.456C97.4004 23.456 97.8247 23.4379 98.2491 23.4015C98.6734 23.3651 99.1705 23.3046 99.7343 23.2137C99.6797 22.2261 99.4918 21.3294 99.1645 20.5357C98.8371 19.742 98.4128 19.0998 97.8914 18.6272C97.3701 18.1486 96.7881 17.9123 96.1516 17.9123C95.7272 17.9123 95.315 18.0638 94.9149 18.3607C94.5148 18.6636 94.1874 19.0635 93.9328 19.5663C93.6782 20.0692 93.5448 20.6508 93.5448 21.3052" fill="white"/>
<path d="M105.105 21.844V19.5356H107.203V20.9958C107.203 21.8258 107.476 22.4802 108.015 22.9588C108.555 23.4375 109.47 23.6737 110.761 23.6737C111.646 23.6737 112.404 23.5586 113.029 23.3284C113.659 23.0982 114.168 22.7831 114.556 22.3711L111.925 12.659L114.18 12.0228L116.411 20.4869C116.623 21.2503 116.86 21.838 117.115 22.2499C117.369 22.668 117.703 22.9588 118.109 23.1285C118.515 23.2981 119.03 23.3829 119.649 23.3829L120.23 23.6495V25.9579L119.649 26.2245C117.806 26.2245 116.423 25.6307 115.508 24.4493C114.962 25.1218 114.29 25.6307 113.489 25.9761C112.695 26.3214 111.713 26.491 110.543 26.491C108.664 26.491 107.288 26.0912 106.415 25.2975C105.536 24.5038 105.099 23.3526 105.099 21.8501" fill="white"/>
<path d="M119.073 23.6497L119.655 23.3831H125.499L126.08 23.6497V25.9581L125.499 26.2246H119.655L119.073 25.9581V23.6497Z" fill="white"/>
<path d="M124.911 23.6495L125.493 23.3829C126.59 23.3829 127.384 23.2859 127.869 23.0921C128.354 22.8982 128.687 22.6074 128.863 22.2136C129.003 21.9288 129.1 21.5835 129.154 21.1775L129.524 17.5968H131.646L131.458 19.7719C131.44 19.9476 131.421 20.1839 131.403 20.4747C131.385 20.7655 131.379 21.0018 131.379 21.1775C131.379 21.9046 131.652 22.4498 132.203 22.8255C132.755 23.1951 133.646 23.3829 134.883 23.3829L135.465 23.6495V25.9578L134.883 26.2244H134.513C133.452 26.2244 132.537 26.0911 131.779 25.8124C131.021 25.5337 130.439 25.0672 130.051 24.3947C129.7 25.0127 129.154 25.4731 128.433 25.7761C127.705 26.079 126.723 26.2244 125.487 26.2244L124.905 25.9578V23.6495H124.911ZM130.597 11.1746L132.403 13.0043L130.597 14.8098L128.79 13.0043L130.597 11.1746Z" fill="white"/>
<path d="M134.313 23.6502L134.895 23.3837C135.992 23.3837 136.786 23.2867 137.271 23.0928C137.756 22.899 138.09 22.59 138.265 22.1659C138.375 21.8993 138.453 21.5721 138.502 21.1843L138.926 17.3371H141.048L140.836 19.7787C140.818 19.9544 140.799 20.1907 140.781 20.4815C140.763 20.7724 140.757 21.0086 140.757 21.1843C140.757 21.8569 140.987 22.3597 141.448 22.699C142.212 21.251 143.121 19.9605 144.182 18.8396C145.243 17.7188 146.358 16.8342 147.528 16.1859C148.698 15.5376 149.832 15.2165 150.929 15.2165C151.905 15.2165 152.772 15.4589 153.542 15.9436C154.312 16.4283 154.924 17.0826 155.373 17.9066C155.821 18.7306 156.052 19.6636 156.052 20.7057C156.052 22.493 155.355 23.8623 153.954 24.8075C152.554 25.7526 150.505 26.2252 147.795 26.2252H145.194C143.582 26.2252 142.327 26.0858 141.424 25.8132C140.521 25.5406 139.866 25.074 139.46 24.4197C138.805 25.6254 137.283 26.2252 134.895 26.2252L134.313 25.9586V23.6502ZM153.033 18.6457C152.451 18.1065 151.687 17.8339 150.747 17.8339C149.529 17.8339 148.262 18.3186 146.952 19.2819C145.643 20.2452 144.437 21.5842 143.339 23.3049C143.782 23.3594 144.285 23.3837 144.855 23.3837H147.698C149.965 23.3837 151.566 23.1777 152.505 22.7717C153.445 22.3658 153.912 21.6812 153.912 20.7299C153.912 19.8817 153.621 19.185 153.033 18.6457Z" fill="white"/>
<path d="M0.0909424 39.1053H7.511V40.5836H1.83684V43.8189H7.19577V45.2973H1.83684V48.8477H7.80805L7.57163 50.326H0.0909424V39.1053Z" fill="white"/>
<path d="M9.52368 39.1053H11.1908L16.5982 47.5632V39.1053H18.2653V50.326H16.6588L11.1908 41.8862V50.326H9.52368V39.1053Z" fill="white"/>
<path d="M24.8062 48.2539L28.0616 39.1053H29.9348L25.7519 50.326H23.8605L19.6776 39.1053H21.6114L24.8062 48.2539Z" fill="white"/>
<path d="M33.0751 39.1053H31.3292V50.326H33.0751V39.1053Z" fill="white"/>
<path d="M35.4695 39.1053H39.3068C40.1373 39.1053 40.8163 39.1961 41.3619 39.3718C41.9014 39.5475 42.3318 39.796 42.641 40.1049C42.9562 40.4139 43.1805 40.7593 43.3078 41.147C43.4412 41.5348 43.5018 41.9347 43.5018 42.3406C43.5018 43.0555 43.3503 43.6675 43.0532 44.1825C42.7562 44.6974 42.2773 45.0973 41.6286 45.3942L43.9686 50.326H42.0651L39.9918 45.782C39.8645 45.7941 39.7372 45.8001 39.6099 45.8062C39.4766 45.8062 39.3553 45.8122 39.2401 45.8122H37.1669V50.326H35.4695V39.1053ZM41.7741 42.4073C41.7741 42.0074 41.7014 41.6681 41.5559 41.3833C41.4104 41.0986 41.1497 40.8865 40.7799 40.7411C40.4101 40.5957 39.8888 40.523 39.228 40.523H37.1669V44.3885H39.3978C40.0161 44.3885 40.5011 44.3097 40.8466 44.1461C41.1921 43.9825 41.4346 43.7583 41.568 43.4615C41.7014 43.1707 41.7741 42.8192 41.7741 42.4073Z" fill="white"/>
<path d="M45.0419 44.7344C45.0419 43.4742 45.2662 42.4079 45.7087 41.5293C46.1512 40.6508 46.7696 39.9783 47.5577 39.5179C48.3457 39.0574 49.2551 38.8272 50.2917 38.8272C51.3283 38.8272 52.2558 39.0574 53.0378 39.5118C53.8199 39.9662 54.4261 40.6327 54.8625 41.4991C55.299 42.3654 55.5173 43.4318 55.5173 44.6859C55.5173 45.9401 55.3051 47.0125 54.8747 47.897C54.4443 48.7816 53.838 49.4541 53.05 49.9146C52.2619 50.3751 51.3404 50.6053 50.2796 50.6053C49.2187 50.6053 48.3276 50.3751 47.5455 49.9207C46.7575 49.4663 46.1452 48.7998 45.7087 47.9273C45.2662 47.0549 45.0479 45.9886 45.0479 44.7283M46.8545 44.7162C46.8545 46.0552 47.1394 47.1215 47.7092 47.9152C48.2791 48.7089 49.1338 49.1027 50.2796 49.1027C51.4253 49.1027 52.2558 48.7089 52.8378 47.9152C53.4198 47.1215 53.7107 46.0613 53.7107 44.7162C53.7107 43.3712 53.4198 42.323 52.8378 41.5233C52.2558 40.7296 51.4071 40.3297 50.2796 40.3297C49.152 40.3297 48.2791 40.7296 47.7092 41.5233C47.1394 42.317 46.8545 43.3833 46.8545 44.7162Z" fill="white"/>
<path d="M57.5297 39.1053H59.1968L64.6042 47.5632V39.1053H66.2713V50.326H64.6648L59.1968 41.8862V50.326H57.5297V39.1053Z" fill="white"/>
<path d="M68.6599 39.1053H70.7817L74.1765 48.2721L77.6379 39.1053H79.6991V50.326H78.0805V41.8559L74.8251 50.326H73.4551L70.2482 41.8741V50.326H68.6599V39.1053Z" fill="white"/>
<path d="M82.0875 39.1053H89.5076V40.5836H83.8334V43.8189H89.1984V45.2973H83.8334V48.8477H89.8107L89.5743 50.326H82.0875V39.1053Z" fill="white"/>
<path d="M91.5203 39.1053H93.1874L98.6009 47.5632V39.1053H100.262V50.326H98.6615L93.1874 41.8862V50.326H91.5203V39.1053Z" fill="white"/>
<path d="M105.39 40.6502H101.759V39.1053H110.767V40.6502H107.136V50.326H105.39V40.6502Z" fill="white"/>
<path d="M115.738 39.1053H122.843V40.6018H117.466V44.0128H122.516V45.5335H117.466V50.326H115.738V39.1053Z" fill="white"/>
<path d="M124.577 45.7879V39.1112H126.305V45.8667C126.305 46.9452 126.511 47.757 126.923 48.2962C127.335 48.8355 128.008 49.1081 128.93 49.1081C129.851 49.1081 130.536 48.8355 130.924 48.2962C131.312 47.757 131.506 46.9452 131.506 45.8667V39.1112H133.252V45.8546C133.252 47.5086 132.87 48.7204 132.106 49.4777C131.342 50.235 130.27 50.6167 128.899 50.6167C127.529 50.6167 126.438 50.235 125.693 49.4716C124.947 48.7082 124.577 47.4783 124.577 45.794" fill="white"/>
<path d="M135.531 39.1053H137.198L142.612 47.5632V39.1053H144.273V50.326H142.672L137.198 41.8862V50.326H135.531V39.1053Z" fill="white"/>
<path d="M146.668 39.1053H150.693C152.372 39.1053 153.675 39.5657 154.609 40.4806C155.543 41.3955 156.009 42.7829 156.009 44.6369C156.009 46.4908 155.512 47.9267 154.518 48.8901C153.524 49.8473 152.148 50.326 150.396 50.326H146.668V39.1053ZM154.197 44.6732C154.197 43.3766 153.924 42.3709 153.372 41.656C152.821 40.941 151.936 40.5896 150.705 40.5896H148.395V48.8416H150.456C151.76 48.8416 152.706 48.4781 153.306 47.745C153.906 47.0119 154.203 45.988 154.203 44.6793" fill="white"/>
<path d="M0.0849609 65.7272H1.63687V70.3015L6.00767 65.7272H7.7172L4.24359 69.429L8.07486 75.6271H6.32897L3.1524 70.4711L1.63687 72.0343V75.6271H0.0849609V65.7272Z" fill="white"/>
<path d="M9.12976 65.7152H10.615V67.1996H9.12976V65.7152ZM9.16007 68.4295H10.615V75.6272H9.16007V68.4295Z" fill="white"/>
<path d="M12.4336 68.4292H13.8643V69.4713C14.228 69.0169 14.6099 68.6958 15.0221 68.5019C15.4344 68.3081 15.8648 68.2111 16.3073 68.2111C17.1136 68.2111 17.7137 68.4353 18.1138 68.8836C18.5139 69.332 18.7079 69.9803 18.7079 70.8345V75.633H17.2651V71.1132C17.2651 70.5134 17.156 70.0833 16.9317 69.8288C16.7074 69.5743 16.374 69.4471 15.9193 69.4471C15.6708 69.4471 15.4222 69.4956 15.1797 69.5864C14.9373 69.6773 14.7069 69.8167 14.5068 70.0045C14.3007 70.1802 14.1492 70.3741 14.0401 70.5861C13.937 70.7982 13.8824 71.0648 13.8824 71.3919V75.6391H12.4397V68.4414L12.4336 68.4292Z" fill="white"/>
<path d="M25.5459 75.0212V74.2881C25.2792 74.6577 24.9519 74.9485 24.5699 75.1545C24.188 75.3605 23.7394 75.4635 23.2302 75.4635C22.5452 75.4635 21.9814 75.3059 21.5328 74.9848C21.0842 74.6637 20.7508 74.2336 20.5326 73.6883C20.3143 73.143 20.2052 72.5311 20.2052 71.8585C20.2052 71.1315 20.3325 70.4893 20.5871 69.944C20.8417 69.3987 21.2055 68.9746 21.6844 68.6656C22.1633 68.3627 22.721 68.2051 23.3696 68.2051C23.7697 68.2051 24.1577 68.2839 24.5336 68.4414C24.9155 68.599 25.261 68.8898 25.5763 69.3139V68.4293H27.0069V74.5183C27.0069 75.3302 26.916 76.033 26.7281 76.6267C26.5462 77.2205 26.2128 77.6749 25.7339 77.996C25.255 78.3171 24.5821 78.4746 23.7031 78.4746C22.7392 78.4746 21.9875 78.2989 21.4419 77.9415C20.8963 77.584 20.575 77.0145 20.4841 76.2269H21.9147C21.9996 76.6267 22.1754 76.9115 22.4482 77.0872C22.721 77.2629 23.1393 77.3477 23.7031 77.3477C24.4063 77.3477 24.8912 77.1538 25.1519 76.76C25.4126 76.3662 25.5459 75.7846 25.5459 75.0212ZM25.1034 70.047C24.7882 69.6168 24.3032 69.4048 23.6485 69.4048C23.1029 69.4048 22.6422 69.5986 22.2724 69.9803C21.9026 70.362 21.7147 70.9861 21.7147 71.8464C21.7147 72.4281 21.8056 72.9006 21.9753 73.252C22.1511 73.6095 22.3815 73.864 22.6664 74.0215C22.9513 74.179 23.2545 74.2578 23.5697 74.2578C24.2426 74.2578 24.7457 74.0457 25.0731 73.6156C25.4005 73.1854 25.5641 72.6401 25.5641 71.9737V71.7495C25.5641 71.0467 25.4065 70.4832 25.0913 70.053" fill="white"/>
<path d="M28.5709 72.0768C28.5709 70.8832 28.8497 69.9441 29.4196 69.2473C29.9834 68.5567 30.7593 68.2053 31.7353 68.2053C32.1112 68.2053 32.4931 68.284 32.8629 68.4355C33.2387 68.5869 33.5843 68.8656 33.8995 69.2595V65.7212H35.3544V75.6211H33.9359V74.6396C33.6388 75.0274 33.3054 75.3242 32.9296 75.5363C32.5537 75.7423 32.1112 75.8513 31.5898 75.8513C30.9048 75.8513 30.341 75.6878 29.8924 75.3606C29.4438 75.0334 29.1104 74.5851 28.8922 74.0155C28.6739 73.446 28.5648 72.8038 28.5648 72.0828M30.0682 72.0344C30.0682 72.6887 30.1592 73.2097 30.341 73.5854C30.5229 73.9671 30.7533 74.2337 31.0321 74.3972C31.317 74.5608 31.608 74.6396 31.9111 74.6396C32.5234 74.6396 33.0144 74.4336 33.3842 74.0277C33.754 73.6217 33.9419 73.034 33.9419 72.2646V71.8223C33.9419 70.9801 33.7661 70.3682 33.4085 69.9744C33.0508 69.5866 32.584 69.3928 32.0021 69.3928C31.4565 69.3928 30.9957 69.5927 30.6259 69.9986C30.2562 70.3985 30.0682 71.0771 30.0682 72.0283" fill="white"/>
<path d="M36.9246 72.0523C36.9246 71.2647 37.0701 70.5861 37.361 70.0166C37.652 69.441 38.0642 68.9988 38.5977 68.6837C39.1312 68.3686 39.7556 68.2111 40.477 68.2111C41.5803 68.2111 42.4351 68.5504 43.0595 69.229C43.6778 69.9076 43.987 70.8285 43.987 71.9978C43.987 73.1671 43.6717 74.1305 43.0352 74.8212C42.4047 75.5119 41.5318 75.8572 40.4345 75.8572C39.3373 75.8572 38.4643 75.5179 37.846 74.8454C37.2337 74.1729 36.9246 73.2398 36.9246 72.0584M38.434 72.022C38.434 72.8097 38.5917 73.4458 38.9069 73.9305C39.2221 74.4152 39.7313 74.6576 40.4467 74.6576C41.162 74.6576 41.6773 74.4152 41.9925 73.9245C42.3138 73.4337 42.4714 72.7976 42.4714 72.0099C42.4714 71.2223 42.3138 70.6164 41.9925 70.1317C41.6712 69.647 41.1559 69.4047 40.4467 69.4047C39.7374 69.4047 39.2342 69.647 38.9129 70.1317C38.5916 70.6164 38.434 71.2465 38.434 72.022Z" fill="white"/>
<path d="M45.5569 68.4293H46.9876V69.4835C47.3028 69.0594 47.6483 68.7383 48.0302 68.5262C48.4122 68.3142 48.8001 68.2051 49.1942 68.2051C49.7095 68.2051 50.1399 68.3203 50.4733 68.5444C50.8067 68.7686 51.0492 69.0897 51.2068 69.5078C51.8555 68.6414 52.6557 68.2051 53.6074 68.2051C54.3167 68.2051 54.8683 68.4051 55.2503 68.7989C55.6322 69.1988 55.8262 69.8168 55.8262 70.6589V75.6271H54.3834V70.9679C54.3834 70.3742 54.2864 69.9743 54.0924 69.7622C53.8984 69.5502 53.6135 69.4411 53.2316 69.4411C53.0254 69.4411 52.8193 69.4775 52.6072 69.5441C52.395 69.6108 52.1828 69.738 51.9828 69.9137C51.813 70.0591 51.6796 70.2348 51.5827 70.4347C51.4796 70.6347 51.4311 70.8649 51.4311 71.1194V75.6271H49.9762V70.9679C49.9762 70.4044 49.8792 70.0106 49.6791 69.7804C49.4791 69.5562 49.1942 69.4411 48.8244 69.4411C48.3879 69.4411 47.9817 69.6229 47.6059 69.9803C47.4604 70.1076 47.321 70.2772 47.1997 70.4832C47.0724 70.6892 47.0118 70.974 47.0118 71.3254V75.6271H45.569V68.4293H45.5569Z" fill="white"/>
<path d="M60.4154 72.0523C60.4154 71.2647 60.5609 70.5861 60.8519 70.0166C61.1429 69.441 61.5551 68.9988 62.0886 68.6837C62.622 68.3686 63.2464 68.2111 63.9678 68.2111C65.0711 68.2111 65.9259 68.5504 66.5503 69.229C67.1686 69.9076 67.4778 70.8285 67.4778 71.9978C67.4778 73.1671 67.1626 74.1305 66.526 74.8212C65.8895 75.5119 65.0226 75.8572 63.9254 75.8572C62.8281 75.8572 61.9552 75.5179 61.3369 74.8454C60.7246 74.1729 60.4154 73.2398 60.4154 72.0584M61.9249 72.022C61.9249 72.8097 62.0825 73.4458 62.3977 73.9305C62.713 74.4152 63.2282 74.6576 63.9375 74.6576C64.6468 74.6576 65.1681 74.4152 65.4834 73.9245C65.8047 73.4337 65.9623 72.7976 65.9623 72.0099C65.9623 71.2223 65.8047 70.6164 65.4834 70.1317C65.1621 69.647 64.6468 69.4047 63.9375 69.4047C63.2282 69.4047 62.7251 69.647 62.4038 70.1317C62.0825 70.6164 61.9249 71.2465 61.9249 72.022Z" fill="white"/>
<path d="M69.5026 69.6355H68.3811V68.4844H69.5026V67.9451C69.5026 67.1514 69.7269 66.5638 70.1694 66.1821C70.612 65.8004 71.1576 65.6125 71.8062 65.6125C72.0184 65.6125 72.2366 65.6247 72.4609 65.6549C72.6852 65.6852 72.9035 65.7277 73.1278 65.7943L72.9035 66.8909C72.758 66.8425 72.6185 66.8122 72.4852 66.8C72.3579 66.7879 72.2245 66.7819 72.0972 66.7819C71.7759 66.7819 71.5031 66.8667 71.2849 67.0303C71.0666 67.1999 70.9575 67.4907 70.9575 67.9148V68.4844H72.7337V69.6355H70.9575V75.6276H69.5026V69.6355Z" fill="white"/>
<path d="M82.8087 72.9674C82.8087 72.719 82.7663 72.4888 82.6754 72.2828C82.5905 72.0768 82.4268 71.8951 82.1843 71.7436C81.9419 71.5921 81.5903 71.4709 81.1295 71.3922L79.8686 71.168C79.2018 71.0468 78.638 70.8772 78.1833 70.6651C77.7226 70.447 77.3771 70.1501 77.1346 69.7624C76.8921 69.3807 76.7708 68.8839 76.7708 68.2841C76.7708 67.6843 76.9345 67.145 77.2558 66.733C77.5771 66.315 78.0257 66.006 78.5895 65.7939C79.1533 65.5879 79.7898 65.4849 80.5051 65.4849C81.372 65.4849 82.0692 65.6061 82.5784 65.8545C83.0937 66.0969 83.4756 66.418 83.7363 66.8179C83.9969 67.2177 84.1667 67.6479 84.2515 68.1205L82.7966 68.3568C82.6572 67.8297 82.4268 67.4298 82.1116 67.1571C81.7903 66.8845 81.2629 66.7452 80.5233 66.7452C79.6989 66.7452 79.129 66.8845 78.8017 67.1693C78.4804 67.448 78.3167 67.7994 78.3167 68.2174C78.3167 68.6597 78.4379 68.999 78.6865 69.2232C78.929 69.4473 79.3715 69.623 80.008 69.7442L81.3841 70.0047C82.4268 70.1986 83.1967 70.5197 83.6817 70.9741C84.1667 71.4285 84.4092 72.0889 84.4092 72.9553C84.4092 73.5127 84.2697 74.0095 83.9909 74.4458C83.712 74.8881 83.2998 75.2334 82.7481 75.4939C82.1965 75.7545 81.5054 75.8817 80.6749 75.8817C79.4806 75.8817 78.5228 75.6333 77.7954 75.1304C77.0679 74.6336 76.6557 73.8338 76.5526 72.7433H78.0803C78.1833 73.3916 78.4379 73.8641 78.8562 74.155C79.2745 74.4518 79.8868 74.5972 80.6991 74.5972C81.2387 74.5972 81.6569 74.5245 81.9601 74.3731C82.2632 74.2277 82.4814 74.0277 82.6148 73.7793C82.7421 73.5309 82.8087 73.2583 82.8087 72.9614" fill="white"/>
<path d="M85.5187 73.6459C85.5187 73.1673 85.6217 72.7674 85.8218 72.4584C86.0279 72.1494 86.3007 71.9071 86.6462 71.7314C86.9918 71.5557 87.3858 71.4285 87.8162 71.3497C88.2527 71.2709 88.7013 71.2225 89.162 71.2043L90.3563 71.1619V70.8832C90.3563 70.3197 90.235 69.9138 89.9986 69.6714C89.7561 69.4291 89.3681 69.3018 88.8347 69.3018C88.3012 69.3018 87.9314 69.3867 87.6829 69.5624C87.4343 69.7381 87.2706 69.9865 87.1979 70.2955L85.8824 70.1561C86.0097 69.4836 86.331 68.9868 86.8342 68.6717C87.3373 68.3567 88.0284 68.1992 88.8953 68.1992C89.938 68.1992 90.6836 68.4415 91.1201 68.9262C91.5626 69.4109 91.7809 70.0955 91.7809 70.9862V75.615H90.3926V74.688C90.1259 74.991 89.7985 75.2515 89.4106 75.4636C89.0226 75.6756 88.5437 75.7847 87.9799 75.7847C87.2524 75.7847 86.6584 75.6029 86.2037 75.2454C85.749 74.8819 85.5247 74.3488 85.5247 73.6399M86.9615 73.5914C86.9615 73.9246 87.0645 74.1912 87.2646 74.3912C87.4646 74.5911 87.798 74.688 88.2466 74.688C88.8771 74.688 89.3863 74.5305 89.7743 74.2155C90.1623 73.9004 90.3563 73.446 90.3563 72.8401V72.1191L89.2469 72.1616C88.6528 72.1797 88.1921 72.2464 87.8587 72.3615C87.5252 72.4766 87.2949 72.6341 87.1555 72.8401C87.0221 73.0461 86.9554 73.2945 86.9554 73.5914" fill="white"/>
<path d="M93.4843 73.2158V68.4294H94.9392V72.9492C94.9392 73.549 95.0423 73.9792 95.2423 74.2337C95.4484 74.4881 95.7697 74.6154 96.2123 74.6154C96.7215 74.6154 97.1701 74.4336 97.5581 74.0761C97.7642 73.8944 97.9157 73.6944 98.0248 73.4884C98.134 73.2824 98.1825 73.0159 98.1825 72.6887V68.4294H99.6374V75.6272H98.2067V74.5608C97.8612 75.0031 97.4974 75.3303 97.0973 75.5363C96.6972 75.7423 96.2668 75.8453 95.8061 75.8453C94.9998 75.8453 94.4118 75.6211 94.036 75.1788C93.6601 74.7365 93.4722 74.0761 93.4722 73.2097" fill="white"/>
<path d="M101.195 72.0768C101.195 70.8832 101.474 69.9441 102.044 69.2473C102.608 68.5567 103.384 68.2053 104.36 68.2053C104.736 68.2053 105.117 68.284 105.487 68.4355C105.863 68.5869 106.209 68.8656 106.524 69.2595V65.7212H107.979V75.6211H106.56V74.6396C106.263 75.0274 105.93 75.3242 105.554 75.5363C105.178 75.7423 104.736 75.8513 104.214 75.8513C103.529 75.8513 102.965 75.6878 102.517 75.3606C102.068 75.0334 101.735 74.5851 101.517 74.0155C101.298 73.446 101.189 72.8038 101.189 72.0828M102.693 72.0344C102.693 72.6887 102.784 73.2097 102.965 73.5854C103.147 73.9671 103.378 74.2337 103.657 74.3972C103.941 74.5608 104.232 74.6396 104.536 74.6396C105.148 74.6396 105.639 74.4336 106.009 74.0277C106.378 73.6217 106.566 73.034 106.566 72.2646V71.8223C106.566 70.9801 106.391 70.3682 106.033 69.9744C105.675 69.5866 105.208 69.3928 104.626 69.3928C104.081 69.3928 103.62 69.5927 103.25 69.9986C102.881 70.3985 102.693 71.0771 102.693 72.0283" fill="white"/>
<path d="M109.773 65.7152H111.258V67.1996H109.773V65.7152ZM109.797 68.4295H111.252V75.6272H109.797V68.4295Z" fill="white"/>
<path d="M122.037 73.034H117.945L116.987 75.6271H115.405L119.176 65.7272H120.867L124.626 75.6271H122.989L122.031 73.034H122.037ZM119.982 67.2964L118.369 71.7374H121.588L119.976 67.2964H119.982Z" fill="white"/>
<path d="M125.699 68.43H127.129V69.4963C127.396 69.1207 127.705 68.8238 128.057 68.6178C128.408 68.4118 128.79 68.3088 129.209 68.3088C129.336 68.3088 129.457 68.3149 129.56 68.327C129.663 68.3391 129.766 68.3573 129.857 68.3755L129.675 69.6781C129.584 69.6599 129.487 69.6417 129.384 69.6296C129.281 69.6175 129.178 69.6114 129.063 69.6114C128.839 69.6114 128.621 69.6478 128.396 69.7205C128.172 69.7932 127.96 69.9144 127.76 70.084C127.566 70.2597 127.414 70.4596 127.299 70.6778C127.19 70.9019 127.135 71.1564 127.135 71.4533V75.6277H125.693V68.43H125.699Z" fill="white"/>
<path d="M130.5 73.6459C130.5 73.1673 130.603 72.7674 130.803 72.4584C131.009 72.1494 131.282 71.9071 131.627 71.7314C131.973 71.5557 132.367 71.4285 132.797 71.3497C133.234 71.2709 133.682 71.2225 134.143 71.2043L135.337 71.1619V70.8832C135.337 70.3197 135.216 69.9138 134.98 69.6714C134.737 69.4291 134.349 69.3018 133.816 69.3018C133.282 69.3018 132.912 69.3867 132.664 69.5624C132.415 69.7381 132.252 69.9865 132.179 70.2955L130.863 70.1561C130.991 69.4836 131.312 68.9868 131.815 68.6717C132.318 68.3567 133.009 68.1992 133.876 68.1992C134.919 68.1992 135.665 68.4415 136.101 68.9262C136.544 69.4109 136.762 70.0955 136.762 70.9862V75.615H135.374V74.688C135.107 74.991 134.78 75.2515 134.392 75.4636C134.004 75.6756 133.525 75.7847 132.961 75.7847C132.234 75.7847 131.639 75.6029 131.185 75.2454C130.73 74.8819 130.506 74.3488 130.506 73.6399M131.943 73.5914C131.943 73.9246 132.046 74.1912 132.246 74.3912C132.446 74.5911 132.779 74.688 133.234 74.688C133.864 74.688 134.373 74.5305 134.761 74.2155C135.149 73.9004 135.343 73.446 135.343 72.8401V72.1191L134.234 72.1616C133.64 72.1797 133.179 72.2464 132.846 72.3615C132.512 72.4766 132.282 72.6341 132.143 72.8401C132.009 73.0461 131.943 73.2945 131.943 73.5914Z" fill="white"/>
<path d="M139.939 75.6271H138.52V65.7272H139.963V69.3745C140.248 69.0049 140.587 68.7202 140.969 68.5142C141.351 68.3082 141.794 68.2112 142.297 68.2112C142.97 68.2112 143.533 68.3688 143.982 68.6838C144.431 68.9989 144.764 69.4351 144.988 69.9985C145.213 70.562 145.322 71.2163 145.322 71.9676C145.322 73.1673 145.037 74.1185 144.473 74.8092C143.909 75.4999 143.133 75.8513 142.157 75.8513C141.751 75.8513 141.351 75.7664 140.963 75.5968C140.575 75.4271 140.23 75.1363 139.939 74.7304V75.6331V75.6271ZM139.963 71.7737V72.216C139.963 73.0764 140.145 73.7004 140.502 74.0821C140.86 74.4638 141.327 74.6577 141.891 74.6577C142.454 74.6577 142.903 74.4517 143.267 74.0458C143.63 73.6398 143.806 72.9613 143.806 72.01C143.806 71.3557 143.715 70.8346 143.546 70.459C143.37 70.0834 143.145 69.8107 142.867 69.6471C142.588 69.4836 142.291 69.4048 141.975 69.4048C141.393 69.4048 140.915 69.6047 140.533 70.0107C140.151 70.4105 139.963 71.0043 139.963 71.7798" fill="white"/>
<path d="M146.874 65.7152H148.359V67.1996H146.874V65.7152ZM146.904 68.4295H148.359V75.6272H146.904V68.4295Z" fill="white"/>
<path d="M149.735 73.6459C149.735 73.1673 149.838 72.7674 150.038 72.4584C150.244 72.1494 150.517 71.9071 150.863 71.7314C151.208 71.5557 151.602 71.4285 152.033 71.3497C152.469 71.2709 152.918 71.2225 153.378 71.2043L154.573 71.1619V70.8832C154.573 70.3197 154.451 69.9138 154.215 69.6714C153.978 69.4291 153.584 69.3018 153.051 69.3018C152.518 69.3018 152.148 69.3867 151.899 69.5624C151.651 69.7381 151.487 69.9865 151.414 70.2955L150.099 70.1561C150.226 69.4836 150.547 68.9868 151.05 68.6717C151.554 68.3567 152.245 68.1992 153.112 68.1992C154.154 68.1992 154.9 68.4415 155.336 68.9262C155.779 69.4109 155.997 70.0955 155.997 70.9862V75.615H154.609V74.688C154.342 74.991 154.015 75.2515 153.627 75.4636C153.239 75.6756 152.76 75.7847 152.196 75.7847C151.463 75.7847 150.875 75.6029 150.42 75.2454C149.965 74.8819 149.741 74.3488 149.741 73.6399M151.178 73.5914C151.178 73.9246 151.281 74.1912 151.481 74.3912C151.687 74.5911 152.014 74.688 152.469 74.688C153.099 74.688 153.609 74.5305 153.997 74.2155C154.385 73.9004 154.579 73.446 154.579 72.8401V72.1191L153.469 72.1616C152.875 72.1797 152.414 72.2464 152.081 72.3615C151.748 72.4766 151.517 72.6341 151.378 72.8401C151.244 73.0461 151.178 73.2945 151.178 73.5914Z" fill="white"/>
</svg>
