<svg width="256" height="86" viewBox="0 0 256 86" fill="none" xmlns="http://www.w3.org/2000/svg">
<g id="EF-logo">
<g id="logo-shape">
<path id="Vector" d="M212.781 68.1786C212.624 68.1786 212.466 68.1786 212.308 68.1786L212.005 85.0643C212.26 85.0643 212.521 85.0703 212.781 85.0703H212.793V68.1786H212.781ZM214.236 68.1362C214.072 68.1483 213.915 68.1544 213.757 68.1605L214.388 85.04C214.654 85.0279 214.921 85.0158 215.176 85.0037L214.236 68.1423V68.1362ZM210.872 68.1059L209.635 84.9491C209.896 84.9673 210.162 84.9855 210.423 84.9976L211.351 68.1302C211.187 68.1241 211.029 68.112 210.872 68.0999M215.667 68.015C215.509 68.0332 215.352 68.0514 215.188 68.0635L216.758 84.8825C217.019 84.8583 217.285 84.828 217.546 84.8037L215.667 68.0211V68.015ZM209.441 67.9605L207.265 84.7068C207.525 84.7371 207.792 84.7734 208.053 84.8037L209.914 68.015C209.756 67.9969 209.599 67.9787 209.435 67.9605M217.091 67.8151C216.934 67.8393 216.776 67.8696 216.619 67.8878L219.122 84.5917C219.383 84.5553 219.65 84.5129 219.91 84.4644L217.091 67.8091V67.8151ZM208.016 67.7363L204.9 84.3372C205.161 84.3857 205.428 84.4342 205.689 84.4766L208.489 67.8212C208.332 67.7969 208.174 67.7666 208.016 67.7363ZM218.504 67.5364C218.346 67.5728 218.189 67.6091 218.031 67.6394L221.486 84.1736C221.741 84.1191 221.996 84.0646 222.256 84.004L218.51 67.5364H218.504ZM206.616 67.4334L202.56 83.8343C202.815 83.8949 203.082 83.9616 203.342 84.0161L207.083 67.5425C206.925 67.5061 206.774 67.4698 206.616 67.4334ZM219.892 67.1789C219.741 67.2214 219.583 67.2638 219.431 67.3062L223.802 83.6223C224.057 83.5556 224.317 83.4829 224.572 83.4102L219.892 67.1789ZM205.228 67.0457L200.263 83.1921C200.517 83.2709 200.772 83.3436 201.021 83.4163L205.689 67.1789C205.531 67.1365 205.379 67.0881 205.228 67.0396M221.262 66.7427C221.111 66.7972 220.959 66.8457 220.807 66.9002L226.094 82.9437C226.348 82.8589 226.603 82.7741 226.845 82.6892L221.256 66.7488L221.262 66.7427ZM203.864 66.5852L197.99 82.4227C198.238 82.5135 198.493 82.6044 198.741 82.6892L204.318 66.7427C204.167 66.6882 204.015 66.6337 203.864 66.5791M222.602 66.2277C222.456 66.2883 222.311 66.3489 222.159 66.4034L228.343 82.1258C228.591 82.0288 228.84 81.9258 229.082 81.8289L222.602 66.2277ZM202.524 66.046L195.765 81.526C196.007 81.635 196.256 81.738 196.504 81.841L202.973 66.2338C202.827 66.1732 202.676 66.1126 202.53 66.046M223.911 65.6461C223.766 65.7127 223.626 65.7854 223.481 65.846L230.531 81.1988C230.774 81.0897 231.016 80.9746 231.259 80.8595L223.911 65.6522V65.6461ZM201.221 65.434L193.595 80.5081C193.831 80.6293 194.073 80.7505 194.316 80.8656L201.651 65.6522C201.506 65.5855 201.366 65.5128 201.221 65.4401M225.19 64.9857C225.051 65.0645 224.912 65.1372 224.772 65.2159L232.677 80.1446C232.908 80.0234 233.144 79.8962 233.374 79.7629L225.19 64.9857ZM199.954 64.7494L191.491 79.3691C191.721 79.5024 191.952 79.6357 192.188 79.7629L200.378 64.9857C200.239 64.9069 200.099 64.8282 199.96 64.7494M226.427 64.2526C226.294 64.3374 226.154 64.4222 226.021 64.507L234.756 78.9631C234.981 78.8298 235.211 78.6905 235.429 78.5511L226.427 64.2526ZM198.729 63.9921L189.448 78.1089C189.666 78.2543 189.897 78.3997 190.127 78.5451L199.129 64.2526C198.996 64.1678 198.863 64.0829 198.729 63.9921ZM227.621 63.4528C227.488 63.5437 227.361 63.6346 227.227 63.7255L236.757 77.6726C236.975 77.5272 237.193 77.3757 237.406 77.2243L227.621 63.4528ZM197.547 63.1681L187.502 76.7517C187.714 76.9092 187.926 77.0607 188.145 77.2182L197.941 63.4528C197.814 63.362 197.68 63.265 197.553 63.1681M228.767 62.5925C228.64 62.6894 228.519 62.7864 228.391 62.8833L238.685 76.2791C238.897 76.1155 239.109 75.952 239.315 75.7884L228.773 62.5864L228.767 62.5925ZM196.413 62.2775L185.623 75.2794C185.829 75.4491 186.035 75.6187 186.241 75.7823L196.783 62.5804C196.662 62.4834 196.535 62.3805 196.413 62.2775ZM229.87 61.6595C229.749 61.7685 229.634 61.8715 229.513 61.9745L240.54 74.7705C240.74 74.6009 240.94 74.4252 241.134 74.2495L229.876 61.6534L229.87 61.6595ZM195.328 61.3262L183.834 73.7102C184.028 73.892 184.222 74.0677 184.416 74.2434L195.686 61.6534C195.565 61.5504 195.443 61.4413 195.328 61.3262ZM230.913 60.6719C230.804 60.787 230.689 60.8961 230.574 61.0051L242.292 73.1771C242.486 72.9953 242.674 72.8075 242.862 72.6197L230.913 60.6719ZM194.298 60.3205L182.131 72.0441C182.313 72.2319 182.495 72.4197 182.683 72.6075L194.637 60.6658C194.522 60.5507 194.413 60.4356 194.298 60.3205ZM231.907 59.6298C231.798 59.751 231.695 59.8661 231.586 59.9873L243.971 71.4806C244.153 71.2867 244.329 71.0929 244.504 70.899L231.913 59.6298H231.907ZM193.328 59.2602L180.525 70.2871C180.694 70.487 180.876 70.6869 181.046 70.8808L193.643 59.6237C193.534 59.5026 193.431 59.3874 193.328 59.2602ZM232.835 58.5271C232.732 58.6543 232.635 58.7755 232.532 58.9027L245.535 69.6872C245.705 69.4873 245.868 69.2813 246.032 69.0753L232.835 58.5271ZM192.425 58.1454L179.021 68.4331C179.179 68.6451 179.348 68.8572 179.518 69.0632L192.722 58.521C192.619 58.3938 192.522 58.2726 192.425 58.1454ZM233.702 57.382C233.611 57.5092 233.514 57.6425 233.417 57.7698L247.002 67.8151C247.16 67.6031 247.317 67.3849 247.469 67.1729L233.696 57.382H233.702ZM191.582 56.9821L177.627 66.5064C177.772 66.7245 177.93 66.9427 178.082 67.1608L191.855 57.376C191.764 57.2487 191.673 57.1154 191.582 56.9821ZM234.508 56.1824C234.423 56.3217 234.338 56.455 234.247 56.5883L248.378 65.8581C248.524 65.64 248.669 65.4159 248.809 65.1917L234.514 56.1824H234.508ZM190.8 55.7704L176.336 64.507C176.475 64.7312 176.614 64.9615 176.748 65.1796L191.048 56.1763C190.964 56.043 190.879 55.9037 190.8 55.7704ZM235.241 54.9464C235.163 55.0858 235.084 55.2251 235.005 55.3645L249.627 63.8285C249.76 63.5982 249.894 63.362 250.021 63.1317L235.241 54.9404V54.9464ZM190.091 54.5223L175.16 62.4289C175.281 62.6591 175.408 62.8954 175.541 63.1257L190.321 54.9343C190.242 54.7949 190.169 54.6556 190.091 54.5162M235.902 53.662C235.829 53.8074 235.763 53.9528 235.69 54.0921L250.773 61.714C250.894 61.4777 251.009 61.2414 251.124 61.0051L235.908 53.662H235.902ZM189.46 53.2379L174.111 60.3023C174.22 60.5386 174.335 60.7809 174.444 61.0172L189.66 53.6741C189.594 53.5287 189.521 53.3833 189.454 53.2379M236.49 52.3472C236.43 52.4987 236.369 52.6441 236.302 52.7895L251.785 59.5571C251.894 59.3147 251.997 59.0663 252.1 58.8179L236.49 52.3472ZM188.896 51.9171L173.171 58.1091C173.268 58.3575 173.371 58.6059 173.468 58.8482L189.072 52.3654C189.012 52.22 188.951 52.0746 188.89 51.9231M237.006 51.0022C236.951 51.1537 236.896 51.3051 236.842 51.4566L252.688 57.3335C252.779 57.0851 252.87 56.8307 252.961 56.5823L237.012 51.0022H237.006ZM188.405 50.566L172.359 55.8552C172.444 56.1036 172.529 56.3581 172.613 56.6065L188.563 51.0204C188.508 50.8689 188.46 50.7174 188.405 50.566ZM237.442 49.6329C237.4 49.7844 237.351 49.9419 237.309 50.0934L253.458 55.0676C253.537 54.8131 253.616 54.5587 253.689 54.2981L237.448 49.6329H237.442ZM187.993 49.1906L171.674 53.5711C171.741 53.8256 171.813 54.08 171.886 54.3345L188.126 49.6572C188.084 49.5057 188.036 49.3482 187.999 49.1967M237.8 48.2394C237.763 48.3969 237.727 48.5484 237.691 48.7059L254.095 52.7592C254.155 52.4987 254.222 52.2382 254.277 51.9837L237.794 48.2455L237.8 48.2394ZM187.66 47.7971L171.116 51.2445C171.171 51.5051 171.225 51.7656 171.286 52.0201L187.763 48.2637C187.726 48.1061 187.696 47.9547 187.66 47.7971ZM238.079 46.8338C238.054 46.9913 238.024 47.1489 237.994 47.3064L254.604 50.4266C254.652 50.1661 254.701 49.9056 254.743 49.645L238.079 46.8338ZM187.411 46.3794L170.698 48.8938C170.74 49.1543 170.783 49.4209 170.825 49.6814L187.49 46.858C187.466 46.7005 187.435 46.543 187.417 46.3855M238.279 45.41C238.26 45.5675 238.242 45.7251 238.224 45.8886L254.98 48.0758C255.016 47.8153 255.046 47.5427 255.077 47.2822L238.279 45.4161V45.41ZM187.235 44.9495L170.407 46.5188C170.431 46.7793 170.461 47.0459 170.486 47.3064L187.278 45.4221C187.26 45.2646 187.241 45.1071 187.229 44.9435M238.4 43.9741C238.388 44.1316 238.382 44.2952 238.37 44.4527L255.222 45.6948C255.24 45.4282 255.259 45.1616 255.271 44.9071L238.4 43.9741ZM187.138 43.5136L170.249 44.1559C170.261 44.4164 170.273 44.683 170.286 44.9435L187.157 43.9983C187.15 43.8408 187.138 43.6772 187.132 43.5197M238.442 42.4897V42.5321C238.442 42.6957 238.442 42.8532 238.442 43.0108L255.337 43.3198C255.337 43.0592 255.344 42.7926 255.344 42.5261V42.4352L238.442 42.4837V42.4897ZM170.231 41.7808C170.231 42.0293 170.225 42.2837 170.225 42.5321V42.5564H183.756H187.12V42.5321C187.12 42.3807 187.12 42.2231 187.12 42.0717L170.225 41.7748L170.231 41.7808ZM255.271 40.0905L238.4 41.0477C238.412 41.2053 238.418 41.3689 238.424 41.5324L255.307 40.8781C255.295 40.6176 255.283 40.357 255.271 40.0905ZM170.334 39.4058C170.316 39.6724 170.298 39.939 170.286 40.1995L187.163 41.1144C187.169 40.9569 187.181 40.7933 187.193 40.6357L170.34 39.4058H170.334ZM255.065 37.7155L238.273 39.6118C238.291 39.7694 238.309 39.9269 238.321 40.0905L255.143 38.5031C255.119 38.2426 255.089 37.976 255.059 37.7155M170.577 37.0308C170.54 37.2913 170.51 37.5579 170.48 37.8185L187.278 39.6785C187.296 39.5209 187.314 39.3574 187.332 39.1998L170.571 37.0308H170.577ZM254.731 35.3526L238.072 38.188C238.103 38.3456 238.127 38.5031 238.151 38.6606L254.859 36.1341C254.816 35.8736 254.774 35.607 254.731 35.3526ZM170.952 34.674C170.904 34.9345 170.855 35.2011 170.813 35.4616L187.478 38.2547C187.508 38.0972 187.532 37.9396 187.563 37.7821L170.952 34.674ZM254.264 33.0078L237.788 36.7764C237.824 36.9339 237.86 37.0914 237.891 37.2429L254.434 33.7834C254.38 33.5228 254.325 33.2623 254.264 33.0018M171.456 32.3414C171.389 32.5958 171.328 32.8624 171.274 33.1169L187.757 36.843C187.793 36.6855 187.829 36.534 187.866 36.3765L171.456 32.3414ZM253.664 30.6934L237.43 35.3889C237.472 35.5404 237.521 35.6979 237.557 35.8494L253.876 31.4568C253.81 31.2023 253.737 30.9418 253.664 30.6934ZM172.092 30.0391C172.013 30.2935 171.941 30.548 171.868 30.8025L188.114 35.4556C188.157 35.3041 188.205 35.1466 188.254 34.9951L172.098 30.0391H172.092ZM252.937 28.4214L236.993 34.0257C237.048 34.1772 237.096 34.3286 237.145 34.4801L253.191 29.1727C253.107 28.9243 253.022 28.6698 252.937 28.4214ZM172.862 27.761C172.771 28.0094 172.68 28.2639 172.589 28.5183L188.545 34.0802C188.599 33.9288 188.654 33.7773 188.708 33.6319L172.862 27.7671V27.761ZM252.082 26.1918L236.478 32.6867C236.539 32.8321 236.599 32.9836 236.66 33.129L252.379 26.9249C252.282 26.6825 252.185 26.4341 252.082 26.1918ZM173.759 25.5375C173.65 25.7798 173.547 26.0282 173.444 26.2827L189.06 32.7413C189.121 32.5898 189.181 32.4444 189.248 32.299L173.759 25.5435V25.5375ZM251.1 24.0167L235.89 31.378C235.957 31.5235 236.03 31.6689 236.096 31.8082L251.44 24.7316C251.33 24.4893 251.215 24.253 251.1 24.0167ZM174.778 23.3745C174.656 23.6108 174.541 23.8471 174.426 24.0834L189.648 31.4144C189.721 31.269 189.788 31.1236 189.866 30.9842L174.778 23.3745ZM250.003 21.9022L235.229 30.0997C235.308 30.239 235.381 30.3784 235.46 30.5177L250.385 22.5929C250.263 22.3627 250.136 22.1264 250.009 21.8962M175.917 21.2721C175.784 21.5024 175.651 21.7326 175.523 21.9689L190.309 30.1421C190.388 30.0027 190.466 29.8634 190.545 29.724L175.917 21.2721ZM248.79 19.8544L234.496 28.8697C234.581 29.003 234.666 29.1424 234.75 29.2757L249.209 20.5269C249.069 20.3027 248.93 20.0786 248.79 19.8544ZM177.172 19.2364C177.027 19.4606 176.881 19.6847 176.742 19.9089L191.048 28.9C191.133 28.7667 191.218 28.6274 191.309 28.4941L177.172 19.2364ZM247.463 17.8792L233.696 27.6762C233.787 27.8095 233.884 27.9367 233.968 28.07L247.917 18.5275C247.772 18.3094 247.614 18.0913 247.463 17.8792ZM178.53 17.2794C178.372 17.4915 178.215 17.7096 178.063 17.9217L191.843 27.7004C191.933 27.5732 192.03 27.4399 192.127 27.3127L178.53 17.2734V17.2794ZM246.026 15.9768L232.829 26.525C232.926 26.6462 233.029 26.7734 233.126 26.9007L246.517 16.5948C246.359 16.3827 246.19 16.1767 246.026 15.9708M180.003 15.4012C179.833 15.6072 179.664 15.8132 179.5 16.0192L192.709 26.5553C192.806 26.4281 192.91 26.3069 193.013 26.1797L180.003 15.4012ZM244.486 14.1592L231.895 25.4284C232.004 25.5496 232.107 25.6647 232.21 25.7919L245.001 14.759C244.832 14.5591 244.656 14.3591 244.48 14.1653M181.573 13.6139C181.398 13.8078 181.216 14.0017 181.04 14.2016L193.637 25.4587C193.746 25.3375 193.849 25.2163 193.958 25.1012L181.567 13.6139H181.573ZM242.849 12.4325L230.907 24.3863C231.022 24.5014 231.137 24.6165 231.246 24.7316L243.407 13.002C243.225 12.8142 243.037 12.6263 242.849 12.4385M183.24 11.9175C183.052 12.0992 182.865 12.2871 182.677 12.4688L194.631 24.4045C194.74 24.2894 194.862 24.1803 194.977 24.0712L183.24 11.9175ZM241.116 10.7966L229.858 23.3927C229.98 23.5017 230.095 23.6108 230.216 23.7198L241.704 11.3298C241.51 11.1541 241.316 10.9723 241.116 10.7966ZM184.998 10.3119C184.798 10.4816 184.598 10.6573 184.404 10.833L195.674 23.423C195.795 23.3139 195.916 23.2109 196.038 23.1079L185.004 10.318L184.998 10.3119ZM239.297 9.26376L228.761 22.4717C228.888 22.5687 229.01 22.6717 229.137 22.7747L239.915 9.76664C239.715 9.59699 239.503 9.43341 239.297 9.26376ZM186.847 8.80936C186.641 8.96689 186.429 9.13653 186.223 9.29406L196.771 22.4899C196.892 22.393 197.02 22.29 197.147 22.193L186.841 8.8033L186.847 8.80936ZM237.387 7.82785L227.609 21.5993C227.743 21.6902 227.87 21.7871 227.997 21.878L238.03 8.28831C237.818 8.13078 237.606 7.97932 237.387 7.82179M188.775 7.4098C188.557 7.55521 188.339 7.71273 188.126 7.8642L197.923 21.6235C198.05 21.5326 198.184 21.4418 198.317 21.3509L188.775 7.4098ZM235.405 6.50099L226.415 20.8056C226.548 20.8904 226.688 20.9752 226.821 21.0661L236.078 6.93722C235.854 6.79181 235.629 6.6464 235.405 6.50705M190.776 6.11929C190.551 6.25864 190.321 6.39799 190.103 6.53734L199.117 20.8238C199.25 20.739 199.39 20.6541 199.523 20.5754L190.776 6.12535V6.11929ZM233.344 5.28925L225.172 20.0725C225.312 20.1513 225.451 20.224 225.591 20.3088L234.041 5.68307C233.811 5.54978 233.58 5.41648 233.344 5.28925ZM192.849 4.9439C192.619 5.06508 192.382 5.19231 192.152 5.31954L200.354 20.0907C200.493 20.0119 200.633 19.9392 200.772 19.8604L192.849 4.9439ZM231.216 4.18657L223.887 19.406C224.033 19.4787 224.178 19.5454 224.317 19.6181L231.932 4.53797C231.695 4.4168 231.453 4.30168 231.21 4.18657M194.989 3.88363C194.746 3.99269 194.504 4.1078 194.267 4.22292L201.627 19.4303C201.772 19.3636 201.912 19.2909 202.057 19.2303L194.989 3.88969V3.88363ZM229.028 3.21111L222.572 18.8183C222.717 18.8789 222.869 18.9395 223.014 19.0062L229.761 3.52011C229.519 3.41105 229.27 3.30805 229.028 3.21111ZM197.177 2.95059C196.929 3.04753 196.686 3.14447 196.444 3.24747L202.936 18.8426C203.082 18.782 203.233 18.7214 203.379 18.6608L197.177 2.95059ZM226.785 2.35684L221.226 18.3094C221.377 18.3639 221.529 18.4185 221.68 18.473L227.543 2.62948C227.294 2.5386 227.039 2.44772 226.791 2.35684M199.432 2.13872C199.184 2.22355 198.929 2.30837 198.681 2.39319L204.282 18.3276C204.434 18.2731 204.585 18.2246 204.737 18.1761L199.438 2.13872H199.432ZM224.499 1.63585L219.85 17.8732C220.001 17.9156 220.159 17.9641 220.31 18.0125L225.269 1.86608C225.015 1.78732 224.754 1.70856 224.499 1.63585ZM201.724 1.45409C201.469 1.52074 201.209 1.59344 200.954 1.66614L205.646 17.8914C205.798 17.849 205.955 17.8005 206.107 17.7641L201.724 1.45409ZM222.184 1.0421L218.461 17.5157C218.619 17.5521 218.771 17.5884 218.928 17.6248L222.966 1.22386C222.711 1.16327 222.45 1.09663 222.19 1.0421M204.046 0.896689C203.785 0.951217 203.524 1.00575 203.27 1.06633L207.034 17.5339C207.192 17.4975 207.35 17.4612 207.501 17.4309L204.046 0.896689ZM219.838 0.581636L217.049 17.2431C217.207 17.2673 217.364 17.2976 217.522 17.3279L220.626 0.727045C220.365 0.678575 220.098 0.630106 219.838 0.587695M206.398 0.478638C206.137 0.51499 205.876 0.557401 205.616 0.605871L208.447 17.2552C208.604 17.2249 208.762 17.2007 208.92 17.1764L206.398 0.472579V0.478638ZM217.473 0.254466L215.624 17.0431C215.782 17.0613 215.946 17.0795 216.103 17.0977L218.267 0.345346C218.007 0.315053 217.74 0.278701 217.473 0.254466ZM208.768 0.18782C208.507 0.212055 208.235 0.242348 207.974 0.272642L209.865 17.0553C210.023 17.0371 210.181 17.0189 210.344 17.0068L208.768 0.18782ZM215.103 0.060587L214.194 16.928C214.357 16.9341 214.515 16.9462 214.673 16.9583L215.897 0.115115C215.636 0.0969393 215.37 0.0787633 215.109 0.0666459M211.144 0.0302937C210.884 0.0424111 210.611 0.0545284 210.35 0.0666459L211.308 16.928C211.466 16.9159 211.629 16.9099 211.787 16.9038L211.144 0.0242348V0.0302937ZM212.781 0H212.745V16.8917H212.781C212.933 16.8917 213.078 16.8917 213.23 16.8917L213.521 0.00605885C213.272 0.00605885 213.03 0 212.781 0Z" fill="#283477"/>
<path id="Vector_2" d="M212.781 6.57971C192.91 6.57971 176.809 22.6777 176.809 42.5321C176.809 62.3865 192.916 78.4905 212.781 78.4905C232.647 78.4905 248.76 62.3925 248.76 42.5321C248.76 22.6716 232.653 6.57971 212.781 6.57971ZM199.257 31.7476C202.476 30.5177 205.695 29.7846 207.932 29.3847C205.325 29.1605 202.724 29.1969 200.172 29.4756C200.7 28.4395 201.348 27.4762 202.106 26.6098C204.264 26.4644 206.398 26.6098 208.471 26.8037C207.798 26.222 206.161 25.3375 204.676 24.671C204.67 24.671 204.658 24.665 204.652 24.6589C204.555 24.6165 204.452 24.5741 204.355 24.5317C204.361 24.5317 204.367 24.5256 204.373 24.5195C204.949 24.0954 205.561 23.7077 206.198 23.3684C207.992 23.4653 209.726 24.0106 210.629 24.877C210.629 24.877 210.641 24.7922 210.666 24.6407C210.678 24.5741 210.69 24.4953 210.714 24.4044C210.854 23.7743 211.187 22.6474 211.927 21.781C212.205 21.7568 212.496 21.7507 212.781 21.7507C213.066 21.7507 213.357 21.7568 213.642 21.781H213.654C214.388 22.6474 214.721 23.7804 214.849 24.4044C214.873 24.4953 214.885 24.5741 214.897 24.6407C214.921 24.7922 214.933 24.877 214.933 24.877C215.837 24.0106 217.57 23.4714 219.359 23.3684L221.183 24.5195C221.086 24.562 220.996 24.6104 220.905 24.665C220.899 24.665 220.886 24.671 220.88 24.6771C219.395 25.3435 217.758 26.2281 217.085 26.8097C219.159 26.6098 221.293 26.4704 223.451 26.6159C224.202 27.4823 224.857 28.4456 225.385 29.4816C222.832 29.2029 220.226 29.1666 217.625 29.3907C219.862 29.7906 223.081 30.5237 226.3 31.7536C226.597 32.723 226.791 33.7348 226.87 34.783C224.051 33.6258 221.396 32.9836 219.207 32.6382C221.42 34.0378 224.196 36.4855 226.518 39.2301C226.3 40.151 225.985 41.0356 225.591 41.8717C222.857 38.5818 219.759 35.71 217.346 34.6012C219.292 37.3277 221.474 43.2107 221.08 47.3185C220.729 47.5729 220.365 47.8153 219.995 48.0334C219.516 45.2282 218.559 41.9141 216.51 39.0544C216.51 39.0483 216.504 39.0423 216.497 39.0302C215.57 37.7336 214.412 36.534 212.981 35.5161C212.824 35.401 212.781 35.3162 212.781 35.298C211.314 36.2734 210.114 37.5215 209.138 38.9211C207.186 41.7081 206.131 45.0828 205.598 48.0455C205.586 48.0395 205.573 48.0334 205.561 48.0213C205.185 47.8032 204.828 47.5669 204.476 47.3063C204.082 43.1925 206.258 37.3095 208.21 34.5831C205.804 35.6918 202.706 38.5576 199.966 41.8475C199.572 41.0113 199.257 40.1268 199.038 39.2119C201.354 36.4673 204.137 34.0196 206.349 32.62C204.155 32.9654 201.506 33.6076 198.687 34.7648C198.766 33.7167 198.96 32.7049 199.263 31.7355M220.692 56.6004L225.021 58.4725C225.281 58.5937 225.536 58.7634 225.797 58.8845C226.124 59.0421 226.458 59.1996 226.791 59.3571C225.942 60.7385 224.893 61.9805 223.687 63.0529C222.802 62.4289 221.814 61.7685 220.699 61.0536L216.37 58.4665C215.237 57.8303 214.036 57.1881 212.781 56.5641C211.526 57.1942 210.332 57.8303 209.199 58.4665L204.87 61.0536C203.755 61.7624 202.767 62.4289 201.882 63.0529C200.675 61.9805 199.626 60.7385 198.778 59.3571C199.111 59.1996 199.439 59.0421 199.772 58.8845C200.033 58.7634 200.287 58.5937 200.548 58.4725L204.876 56.6004C206.386 55.9945 207.883 55.4432 209.35 54.9343C205.422 53.1712 201.045 51.5899 196.377 50.4932C196.377 50.3721 196.377 50.2509 196.389 50.1297C200.154 50.6689 206.052 51.7413 212.787 53.8134C219.529 51.7413 225.427 50.6689 229.192 50.1297L229.204 50.4932C224.53 51.5899 220.159 53.1712 216.231 54.9343C217.698 55.4432 219.189 55.9945 220.705 56.6004" fill="#283477"/>
</g>
<g id="txt">
<path id="Vector_3" d="M155.821 56.8123H0V58.024H155.821V56.8123Z" fill="#283477"/>
<path id="Vector_4" d="M0.139282 18.7395C0.139282 17.764 0.44239 16.8673 1.05467 16.0312C1.66694 15.2012 2.53989 14.4863 3.67351 13.8804C4.80713 13.2806 6.15293 12.8262 7.7109 12.5293V11.1237L9.96602 10.8329V19.5392C9.96602 20.654 10.2267 21.4174 10.748 21.8355C11.2694 22.2535 12.2211 22.4595 13.6033 22.4595L14.1853 22.7261V25.0345L13.6033 25.3011C11.9908 25.3011 10.742 25.0829 9.8569 24.6346C8.97182 24.1923 8.37167 23.4653 8.05038 22.4595C6.9895 22.6352 6.04987 22.7261 5.23754 22.7261C3.67957 22.7261 2.4429 22.3747 1.52145 21.6658C0.600004 20.957 0.139282 19.9876 0.139282 18.7455M2.29134 18.4184C2.29134 19.4241 3.27341 19.933 5.23754 19.933C5.64371 19.933 6.062 19.9149 6.49847 19.8785C6.93494 19.8422 7.35323 19.7876 7.75939 19.721L7.73515 15.2072C6.67427 15.3163 5.72858 15.5284 4.91019 15.8555C4.08574 16.1827 3.44315 16.5705 2.98849 17.0067C2.52777 17.449 2.2974 17.9155 2.2974 18.4123M3.90993 6.76747L5.71645 4.96198L7.52297 6.76747L5.71645 8.57296L3.90993 6.76747ZM7.78971 6.76747L9.59623 4.96198L11.4027 6.76747L9.59623 8.57296L7.78971 6.76747Z" fill="#283477"/>
<path id="Vector_5" d="M13.0155 22.7203L13.5974 22.4537C14.6947 22.4537 15.4888 22.3567 15.9738 22.1629C16.4588 21.969 16.7922 21.6782 16.968 21.2843C17.1074 20.9996 17.2044 20.6542 17.259 20.2483L17.6288 16.6676H19.7505L19.5626 18.8427C19.5444 19.0184 19.5262 19.2547 19.508 19.5455C19.4898 19.8363 19.4838 20.0726 19.4838 20.2483C19.4838 20.9754 19.7566 21.5206 20.3082 21.8963C20.8599 22.2659 21.751 22.4537 22.9877 22.4537L23.5697 22.7203V25.0286L22.9877 25.2952H22.6179C21.557 25.2952 20.6416 25.1559 19.8839 24.8832C19.12 24.6106 18.5441 24.138 18.1562 23.4655C17.8046 24.0835 17.259 24.5439 16.5376 24.8469C15.8101 25.1498 14.828 25.2952 13.5914 25.2952L13.0094 25.0286V22.7203H13.0155ZM15.7555 12.1599L17.1862 12.0024C16.7982 11.5238 16.6042 10.9421 16.6042 10.2514C16.6042 9.5244 16.8467 8.92458 17.3378 8.44595C17.8227 7.96731 18.4411 7.73102 19.1807 7.73102C19.8354 7.73102 20.4658 7.88855 21.066 8.20966L20.7447 9.45775C20.5143 9.36687 20.2537 9.30022 19.9627 9.24569C19.6717 9.19117 19.4292 9.16693 19.2292 9.16693C18.8412 9.16693 18.5199 9.28205 18.2713 9.51228C18.0228 9.74251 17.9015 10.0333 17.9015 10.3908C17.9015 10.7483 18.0349 11.0512 18.3017 11.3057C18.5684 11.5601 18.9018 11.6934 19.308 11.6934C19.4474 11.6934 19.7202 11.6813 20.1203 11.651C20.5204 11.6268 21.0296 11.5783 21.648 11.5056V12.9657C20.8174 13.0384 19.9081 13.1233 18.926 13.2323C17.944 13.3353 16.8831 13.4686 15.7555 13.6322V12.1721V12.1599Z" fill="#283477"/>
<path id="Vector_6" d="M22.4177 22.72L22.9997 22.4534H28.8436L29.4256 22.72V25.0284L28.8436 25.2949H22.9997L22.4177 25.0284V22.72Z" fill="#283477"/>
<path id="Vector_7" d="M26.7218 29.8569L28.5283 28.0514L30.3348 29.8569L28.5283 31.6624L26.7218 29.8569ZM28.2616 22.7198L28.8436 22.4532C29.9408 22.4532 30.7349 22.3562 31.2199 22.1624C31.7049 21.9685 32.0383 21.6777 32.2141 21.2838C32.3535 20.9991 32.4505 20.6537 32.5051 20.2478L32.8749 16.6671H34.9966L34.8087 18.8422C34.7905 19.0179 34.7723 19.2542 34.7541 19.545C34.736 19.8358 34.7299 20.0721 34.7299 20.2478C34.7299 20.9749 35.0027 21.5201 35.5543 21.8897C36.0999 22.2593 36.9971 22.4471 38.2338 22.4471L38.8158 22.7137V25.0221L38.2338 25.2887H37.864C36.8031 25.2887 35.8878 25.1493 35.13 24.8767C34.3662 24.604 33.7903 24.1314 33.4023 23.4589C33.0446 24.0769 32.5112 24.5374 31.7837 24.8403C31.0562 25.1432 30.0742 25.2887 28.8375 25.2887L28.2555 25.0221V22.7137L28.2616 22.7198ZM30.5955 29.8569L32.402 28.0514L34.2086 29.8569L32.402 31.6624L30.5955 29.8569Z" fill="#283477"/>
<path id="Vector_8" d="M37.658 22.7198L38.24 22.4532C39.3372 22.4532 40.1314 22.3562 40.6164 22.1624C41.1013 21.9685 41.4348 21.6777 41.6106 21.2838C41.75 20.9991 41.847 20.6537 41.9015 20.2478L42.2713 16.6671H44.3931L44.2052 18.8422C44.187 19.0179 44.1688 19.2542 44.1506 19.545C44.1324 19.8358 44.1263 20.0721 44.1263 20.2478C44.1263 20.9749 44.3991 21.5201 44.9508 21.8958C45.5024 22.2654 46.3936 22.4532 47.6303 22.4532L48.2122 22.7198V25.0281L47.6303 25.2947H47.2605C46.1996 25.2947 45.2842 25.1554 44.5264 24.8827C43.7626 24.6101 43.1928 24.1375 42.7987 23.465C42.4411 24.083 41.9076 24.5434 41.1801 24.8464C40.4527 25.1493 39.4706 25.2947 38.2339 25.2947L37.652 25.0281V22.7198H37.658ZM37.9248 29.9902L39.8647 28.0514L41.8045 29.9902L39.8647 31.929L37.9248 29.9902Z" fill="#283477"/>
<path id="Vector_9" d="M47.0603 22.7199L47.6423 22.4533C49.079 22.4533 50.0611 22.2231 50.6067 21.7626C51.1462 21.3022 51.4129 20.5388 51.4129 19.4785L51.3099 6.57951L53.6741 6.2887L53.6499 19.6906C53.6499 21.599 53.177 23.0107 52.2313 23.9256C51.2856 24.8405 49.758 25.2949 47.6483 25.2949L47.0664 25.0283V22.7199H47.0603Z" fill="#283477"/>
<path id="Vector_10" d="M61.1853 25.2948H58.9847L58.821 6.5855L61.1853 6.29468V25.2948Z" fill="#283477"/>
<path id="Vector_11" d="M71.1454 24.1257C71.1454 23.3139 71.2303 22.4475 71.4 21.5265C71.5697 20.6056 71.8304 19.4908 72.182 18.1821L74.2795 18.6062C73.9946 19.8119 73.7885 20.7753 73.6551 21.5023C73.5217 22.2294 73.4551 22.9019 73.4551 23.5199C73.4551 25.289 74.0188 26.628 75.1403 27.5428C76.2618 28.4577 77.8016 28.9121 79.7476 28.9121C81.6935 28.9121 83.1545 28.5425 84.2881 27.7973C85.4217 27.0521 86.0643 26.0463 86.228 24.774C85.5369 24.9315 84.961 25.0466 84.5003 25.1072C84.0396 25.1678 83.5788 25.1981 83.1181 25.1981C81.5238 25.1981 80.2689 24.8285 79.3475 24.0833C78.426 23.3381 77.9653 22.2596 77.9653 20.848C77.9653 19.6423 78.2017 18.5578 78.6685 17.5823C79.1353 16.6069 79.7536 15.8374 80.5114 15.2618C81.2752 14.6863 82.0876 14.4015 82.9544 14.4015C84.0335 14.4015 84.9792 14.765 85.7976 15.4921C86.6099 16.2191 87.2525 17.2552 87.7072 18.5941C88.1679 19.9392 88.3982 21.5326 88.3982 23.3684C88.3982 26.113 87.6405 28.1851 86.131 29.5907C84.6155 30.9963 82.4877 31.6991 79.7476 31.6991C77.0075 31.6991 74.9282 31.0448 73.4126 29.7361C71.8971 28.4274 71.1454 26.5613 71.1454 24.1378M79.2141 10.324L81.0206 8.51849L82.8271 10.324L81.0206 12.1295L79.2141 10.324ZM80.0931 20.3814C80.0931 21.1267 80.3841 21.6659 80.9721 22.0112C81.5541 22.3566 82.4088 22.5262 83.5243 22.5262C83.9304 22.5262 84.3366 22.508 84.7488 22.4717C85.155 22.4353 85.6339 22.3748 86.1795 22.2839C86.0037 20.6238 85.5975 19.3212 84.9549 18.3821C84.3184 17.443 83.5667 16.9764 82.6998 16.9764C82.2755 16.9764 81.8633 17.1279 81.4632 17.4309C81.0631 17.7338 80.7357 18.1337 80.4811 18.6365C80.2265 19.1394 80.0931 19.721 80.0931 20.3754M83.0939 10.324L84.9004 8.51849L86.7069 10.324L84.9004 12.1295L83.0939 10.324Z" fill="#283477"/>
<path id="Vector_12" d="M91.4534 20.836C91.4534 19.6303 91.6898 18.5458 92.1566 17.5703C92.6234 16.5949 93.2417 15.8254 93.9995 15.2498C94.7633 14.6743 95.5757 14.3895 96.4426 14.3895C97.5216 14.3895 98.4673 14.753 99.2857 15.4801C100.098 16.2071 100.735 17.1826 101.195 18.4125C101.656 19.6424 101.886 21.0359 101.886 22.593C101.886 24.453 101.529 25.9737 100.825 27.1734C100.116 28.3669 99.0311 29.2939 97.5701 29.9483C96.1091 30.6026 94.2481 31.0509 91.9808 31.2993L91.4231 28.6214C93.7934 28.3003 95.6181 27.8762 96.8912 27.3491C98.1642 26.8159 99.0068 26.0101 99.413 24.9316C98.3158 25.1619 97.3761 25.277 96.6002 25.277C95.0058 25.277 93.751 24.8892 92.8295 24.1198C91.9081 23.3503 91.4473 22.2598 91.4473 20.842M93.5509 20.3816C93.5509 21.1268 93.848 21.666 94.442 22.0113C95.0361 22.3567 95.8788 22.5263 96.976 22.5263C97.4004 22.5263 97.8247 22.5082 98.2491 22.4718C98.6734 22.4355 99.1705 22.3749 99.7343 22.284C99.6797 21.2964 99.4918 20.3997 99.1645 19.606C98.8371 18.8124 98.4128 18.1701 97.8914 17.6976C97.3701 17.2189 96.7881 16.9826 96.1516 16.9826C95.7272 16.9826 95.315 17.1341 94.9149 17.431C94.5148 17.7339 94.1874 18.1338 93.9328 18.6366C93.6782 19.1395 93.5448 19.7212 93.5448 20.3755" fill="#283477"/>
<path id="Vector_13" d="M105.105 20.9143V18.6059H107.203V20.0661C107.203 20.8961 107.476 21.5505 108.015 22.0291C108.555 22.5077 109.47 22.744 110.761 22.744C111.646 22.744 112.404 22.6289 113.029 22.3987C113.659 22.1685 114.168 21.8534 114.556 21.4414L111.925 11.7293L114.18 11.0931L116.411 19.5572C116.623 20.3206 116.86 20.9082 117.115 21.3202C117.369 21.7383 117.703 22.0291 118.109 22.1987C118.515 22.3684 119.03 22.4532 119.649 22.4532L120.23 22.7198V25.0282L119.649 25.2948C117.806 25.2948 116.423 24.701 115.508 23.5195C114.962 24.1921 114.29 24.701 113.489 25.0463C112.695 25.3917 111.713 25.5613 110.543 25.5613C108.664 25.5613 107.288 25.1615 106.415 24.3678C105.536 23.5741 105.099 22.4229 105.099 20.9204" fill="#283477"/>
<path id="Vector_14" d="M119.073 22.72L119.655 22.4534H125.499L126.08 22.72V25.0284L125.499 25.2949H119.655L119.073 25.0284V22.72Z" fill="#283477"/>
<path id="Vector_15" d="M124.911 22.7198L125.493 22.4532C126.59 22.4532 127.384 22.3563 127.869 22.1624C128.354 21.9685 128.687 21.6777 128.863 21.2839C129.003 20.9991 129.1 20.6538 129.154 20.2478L129.524 16.6671H131.646L131.458 18.8422C131.44 19.0179 131.421 19.2542 131.403 19.545C131.385 19.8358 131.379 20.0721 131.379 20.2478C131.379 20.9749 131.652 21.5202 132.203 21.8958C132.755 22.2654 133.646 22.4532 134.883 22.4532L135.465 22.7198V25.0282L134.883 25.2947H134.513C133.452 25.2947 132.537 25.1614 131.779 24.8827C131.021 24.604 130.439 24.1375 130.051 23.465C129.7 24.083 129.154 24.5435 128.433 24.8464C127.705 25.1493 126.723 25.2947 125.487 25.2947L124.905 25.0282V22.7198H124.911ZM130.597 10.2449L132.403 12.0746L130.597 13.8801L128.79 12.0746L130.597 10.2449Z" fill="#283477"/>
<path id="Vector_16" d="M134.313 22.7206L134.895 22.454C135.992 22.454 136.786 22.357 137.271 22.1632C137.756 21.9693 138.09 21.6603 138.265 21.2362C138.375 20.9696 138.453 20.6424 138.502 20.2547L138.926 16.4074H141.048L140.836 18.849C140.818 19.0247 140.799 19.261 140.781 19.5519C140.763 19.8427 140.757 20.079 140.757 20.2547C140.757 20.9272 140.987 21.4301 141.448 21.7693C142.212 20.3213 143.121 19.0308 144.182 17.9099C145.243 16.7891 146.358 15.9045 147.528 15.2562C148.698 14.6079 149.832 14.2868 150.929 14.2868C151.905 14.2868 152.772 14.5292 153.542 15.0139C154.312 15.4986 154.924 16.1529 155.373 16.9769C155.821 17.8009 156.052 18.7339 156.052 19.776C156.052 21.5633 155.355 22.9326 153.954 23.8778C152.554 24.8229 150.505 25.2955 147.795 25.2955H145.194C143.582 25.2955 142.327 25.1562 141.424 24.8835C140.521 24.6109 139.866 24.1444 139.46 23.49C138.805 24.6957 137.283 25.2955 134.895 25.2955L134.313 25.0289V22.7206ZM153.033 17.7161C152.451 17.1768 151.687 16.9042 150.747 16.9042C149.529 16.9042 148.262 17.3889 146.952 18.3522C145.643 19.3156 144.437 20.6545 143.339 22.3752C143.782 22.4297 144.285 22.454 144.855 22.454H147.698C149.965 22.454 151.566 22.248 152.505 21.842C153.445 21.4361 153.912 20.7515 153.912 19.8003C153.912 18.952 153.621 18.2553 153.033 17.7161Z" fill="#283477"/>
<path id="Vector_17" d="M0.0909424 38.1756H7.511V39.6539H1.83684V42.8892H7.19577V44.3676H1.83684V47.918H7.80805L7.57163 49.3963H0.0909424V38.1756Z" fill="#283477"/>
<path id="Vector_18" d="M9.52368 38.1756H11.1908L16.5982 46.6335V38.1756H18.2653V49.3963H16.6588L11.1908 40.9565V49.3963H9.52368V38.1756Z" fill="#283477"/>
<path id="Vector_19" d="M24.8062 47.3242L28.0616 38.1756H29.9348L25.7519 49.3963H23.8605L19.6776 38.1756H21.6114L24.8062 47.3242Z" fill="#283477"/>
<path id="Vector_20" d="M33.0751 38.1756H31.3292V49.3963H33.0751V38.1756Z" fill="#283477"/>
<path id="Vector_21" d="M35.4695 38.1756H39.3068C40.1373 38.1756 40.8163 38.2664 41.3619 38.4422C41.9014 38.6179 42.3318 38.8663 42.641 39.1753C42.9562 39.4842 43.1805 39.8296 43.3078 40.2174C43.4412 40.6051 43.5018 41.005 43.5018 41.4109C43.5018 42.1258 43.3503 42.7378 43.0532 43.2528C42.7562 43.7678 42.2773 44.1676 41.6286 44.4645L43.9686 49.3963H42.0651L39.9918 44.8523C39.8645 44.8644 39.7372 44.8704 39.6099 44.8765C39.4766 44.8765 39.3553 44.8826 39.2401 44.8826H37.1669V49.3963H35.4695V38.1756ZM41.7741 41.4776C41.7741 41.0777 41.7014 40.7384 41.5559 40.4536C41.4104 40.1689 41.1497 39.9568 40.7799 39.8114C40.4101 39.666 39.8888 39.5933 39.228 39.5933H37.1669V43.4588H39.3978C40.0161 43.4588 40.5011 43.38 40.8466 43.2164C41.1921 43.0528 41.4346 42.8287 41.568 42.5318C41.7014 42.241 41.7741 41.8896 41.7741 41.4776Z" fill="#283477"/>
<path id="Vector_22" d="M45.0419 43.8047C45.0419 42.5445 45.2662 41.4782 45.7087 40.5996C46.1512 39.7211 46.7696 39.0486 47.5577 38.5882C48.3457 38.1277 49.2551 37.8975 50.2917 37.8975C51.3283 37.8975 52.2558 38.1277 53.0378 38.5821C53.8199 39.0365 54.4261 39.703 54.8625 40.5694C55.299 41.4357 55.5173 42.5021 55.5173 43.7562C55.5173 45.0104 55.3051 46.0828 54.8747 46.9673C54.4443 47.8519 53.838 48.5244 53.05 48.9849C52.2619 49.4454 51.3404 49.6756 50.2796 49.6756C49.2187 49.6756 48.3276 49.4454 47.5455 48.991C46.7575 48.5366 46.1452 47.8701 45.7087 46.9976C45.2662 46.1252 45.0479 45.0589 45.0479 43.7986M46.8545 43.7865C46.8545 45.1255 47.1394 46.1918 47.7092 46.9855C48.2791 47.7792 49.1338 48.173 50.2796 48.173C51.4253 48.173 52.2558 47.7792 52.8378 46.9855C53.4198 46.1918 53.7107 45.1316 53.7107 43.7865C53.7107 42.4415 53.4198 41.3933 52.8378 40.5936C52.2558 39.7999 51.4071 39.4 50.2796 39.4C49.152 39.4 48.2791 39.7999 47.7092 40.5936C47.1394 41.3873 46.8545 42.4536 46.8545 43.7865Z" fill="#283477"/>
<path id="Vector_23" d="M57.5297 38.1756H59.1968L64.6042 46.6335V38.1756H66.2713V49.3963H64.6648L59.1968 40.9565V49.3963H57.5297V38.1756Z" fill="#283477"/>
<path id="Vector_24" d="M68.6599 38.1756H70.7817L74.1765 47.3424L77.6379 38.1756H79.6991V49.3963H78.0805V40.9262L74.8251 49.3963H73.4551L70.2482 40.9444V49.3963H68.6599V38.1756Z" fill="#283477"/>
<path id="Vector_25" d="M82.0875 38.1756H89.5076V39.6539H83.8334V42.8892H89.1984V44.3676H83.8334V47.918H89.8107L89.5743 49.3963H82.0875V38.1756Z" fill="#283477"/>
<path id="Vector_26" d="M91.5203 38.1756H93.1874L98.6009 46.6335V38.1756H100.262V49.3963H98.6615L93.1874 40.9565V49.3963H91.5203V38.1756Z" fill="#283477"/>
<path id="Vector_27" d="M105.39 39.7205H101.759V38.1756H110.767V39.7205H107.136V49.3963H105.39V39.7205Z" fill="#283477"/>
<path id="Vector_28" d="M115.738 38.1756H122.843V39.6721H117.466V43.0831H122.516V44.6039H117.466V49.3963H115.738V38.1756Z" fill="#283477"/>
<path id="Vector_29" d="M124.577 44.8582V38.1815H126.305V44.937C126.305 46.0155 126.511 46.8273 126.923 47.3666C127.335 47.9058 128.008 48.1784 128.93 48.1784C129.851 48.1784 130.536 47.9058 130.924 47.3666C131.312 46.8273 131.506 46.0155 131.506 44.937V38.1815H133.252V44.9249C133.252 46.5789 132.87 47.7907 132.106 48.548C131.342 49.3053 130.27 49.687 128.899 49.687C127.529 49.687 126.438 49.3053 125.693 48.5419C124.947 47.7785 124.577 46.5486 124.577 44.8643" fill="#283477"/>
<path id="Vector_30" d="M135.531 38.1756H137.198L142.612 46.6335V38.1756H144.273V49.3963H142.672L137.198 40.9565V49.3963H135.531V38.1756Z" fill="#283477"/>
<path id="Vector_31" d="M146.668 38.1756H150.693C152.372 38.1756 153.675 38.636 154.609 39.5509C155.543 40.4658 156.009 41.8532 156.009 43.7072C156.009 45.5611 155.512 46.997 154.518 47.9604C153.524 48.9177 152.148 49.3963 150.396 49.3963H146.668V38.1756ZM154.197 43.7435C154.197 42.447 153.924 41.4412 153.372 40.7263C152.821 40.0114 151.936 39.66 150.705 39.66H148.395V47.9119H150.456C151.76 47.9119 152.706 47.5484 153.306 46.8153C153.906 46.0822 154.203 45.0583 154.203 43.7496" fill="#283477"/>
<path id="Vector_32" d="M0.0849609 64.7975H1.63687V69.3718L6.00767 64.7975H7.7172L4.24359 68.4993L8.07486 74.6974H6.32897L3.1524 69.5414L1.63687 71.1046V74.6974H0.0849609V64.7975Z" fill="#283477"/>
<path id="Vector_33" d="M9.12976 64.7855H10.615V66.2699H9.12976V64.7855ZM9.16007 67.4998H10.615V74.6976H9.16007V67.4998Z" fill="#283477"/>
<path id="Vector_34" d="M12.4336 67.4995H13.8643V68.5416C14.228 68.0872 14.6099 67.7661 15.0221 67.5723C15.4344 67.3784 15.8648 67.2814 16.3073 67.2814C17.1136 67.2814 17.7137 67.5056 18.1138 67.954C18.5139 68.4023 18.7079 69.0506 18.7079 69.9049V74.7034H17.2651V70.1836C17.2651 69.5837 17.156 69.1536 16.9317 68.8991C16.7074 68.6446 16.374 68.5174 15.9193 68.5174C15.6708 68.5174 15.4222 68.5659 15.1797 68.6568C14.9373 68.7476 14.7069 68.887 14.5068 69.0748C14.3007 69.2505 14.1492 69.4444 14.0401 69.6564C13.937 69.8685 13.8824 70.1351 13.8824 70.4623V74.7094H12.4397V67.5117L12.4336 67.4995Z" fill="#283477"/>
<path id="Vector_35" d="M25.5459 74.0915V73.3584C25.2792 73.728 24.9519 74.0188 24.5699 74.2248C24.188 74.4308 23.7394 74.5338 23.2302 74.5338C22.5452 74.5338 21.9814 74.3763 21.5328 74.0551C21.0842 73.734 20.7508 73.3039 20.5326 72.7586C20.3143 72.2133 20.2052 71.6014 20.2052 70.9289C20.2052 70.2018 20.3325 69.5596 20.5871 69.0143C20.8417 68.469 21.2055 68.0449 21.6844 67.7359C22.1633 67.433 22.721 67.2755 23.3696 67.2755C23.7697 67.2755 24.1577 67.3542 24.5336 67.5117C24.9155 67.6693 25.261 67.9601 25.5763 68.3842V67.4996H27.0069V73.5886C27.0069 74.4005 26.916 75.1033 26.7281 75.6971C26.5462 76.2908 26.2128 76.7452 25.7339 77.0663C25.255 77.3874 24.5821 77.545 23.7031 77.545C22.7392 77.545 21.9875 77.3693 21.4419 77.0118C20.8963 76.6543 20.575 76.0848 20.4841 75.2972H21.9147C21.9996 75.697 22.1754 75.9818 22.4482 76.1575C22.721 76.3332 23.1393 76.418 23.7031 76.418C24.4063 76.418 24.8912 76.2242 25.1519 75.8303C25.4126 75.4365 25.5459 74.8549 25.5459 74.0915ZM25.1034 69.1173C24.7882 68.6871 24.3032 68.4751 23.6485 68.4751C23.1029 68.4751 22.6422 68.6689 22.2724 69.0506C21.9026 69.4323 21.7147 70.0564 21.7147 70.9167C21.7147 71.4984 21.8056 71.9709 21.9753 72.3224C22.1511 72.6798 22.3815 72.9343 22.6664 73.0918C22.9513 73.2493 23.2545 73.3281 23.5697 73.3281C24.2426 73.3281 24.7457 73.116 25.0731 72.6859C25.4005 72.2557 25.5641 71.7104 25.5641 71.044V70.8198C25.5641 70.117 25.4065 69.5535 25.0913 69.1234" fill="#283477"/>
<path id="Vector_36" d="M28.5709 71.1471C28.5709 69.9535 28.8497 69.0144 29.4196 68.3177C29.9834 67.627 30.7593 67.2756 31.7353 67.2756C32.1112 67.2756 32.4931 67.3543 32.8629 67.5058C33.2387 67.6573 33.5843 67.936 33.8995 68.3298V64.7915H35.3544V74.6914H33.9359V73.7099C33.6388 74.0977 33.3054 74.3945 32.9296 74.6066C32.5537 74.8126 32.1112 74.9216 31.5898 74.9216C30.9048 74.9216 30.341 74.7581 29.8924 74.4309C29.4438 74.1037 29.1104 73.6554 28.8922 73.0859C28.6739 72.5163 28.5648 71.8741 28.5648 71.1531M30.0682 71.1047C30.0682 71.759 30.1592 72.2801 30.341 72.6557C30.5229 73.0374 30.7533 73.304 31.0321 73.4676C31.317 73.6311 31.608 73.7099 31.9111 73.7099C32.5234 73.7099 33.0144 73.5039 33.3842 73.098C33.754 72.692 33.9419 72.1044 33.9419 71.3349V70.8926C33.9419 70.0504 33.7661 69.4385 33.4085 69.0447C33.0508 68.6569 32.584 68.4631 32.0021 68.4631C31.4565 68.4631 30.9957 68.663 30.6259 69.0689C30.2562 69.4688 30.0682 70.1474 30.0682 71.0986" fill="#283477"/>
<path id="Vector_37" d="M36.9246 71.1227C36.9246 70.335 37.0701 69.6564 37.361 69.0869C37.652 68.5114 38.0642 68.0691 38.5977 67.754C39.1312 67.439 39.7556 67.2814 40.477 67.2814C41.5803 67.2814 42.4351 67.6207 43.0595 68.2993C43.6778 68.9779 43.987 69.8988 43.987 71.0681C43.987 72.2375 43.6717 73.2008 43.0352 73.8915C42.4047 74.5822 41.5318 74.9275 40.4345 74.9275C39.3373 74.9275 38.4643 74.5882 37.846 73.9157C37.2337 73.2432 36.9246 72.3102 36.9246 71.1287M38.434 71.0924C38.434 71.88 38.5917 72.5162 38.9069 73.0009C39.2221 73.4856 39.7313 73.7279 40.4467 73.7279C41.162 73.7279 41.6773 73.4855 41.9925 72.9948C42.3138 72.504 42.4714 71.8679 42.4714 71.0802C42.4714 70.2926 42.3138 69.6867 41.9925 69.202C41.6712 68.7173 41.1559 68.475 40.4467 68.475C39.7374 68.475 39.2342 68.7173 38.9129 69.202C38.5916 69.6867 38.434 70.3168 38.434 71.0924Z" fill="#283477"/>
<path id="Vector_38" d="M45.5569 67.4996H46.9876V68.5538C47.3028 68.1297 47.6483 67.8086 48.0302 67.5966C48.4122 67.3845 48.8001 67.2755 49.1942 67.2755C49.7095 67.2755 50.1399 67.3906 50.4733 67.6147C50.8067 67.8389 51.0492 68.16 51.2068 68.5781C51.8555 67.7117 52.6557 67.2755 53.6074 67.2755C54.3167 67.2755 54.8683 67.4754 55.2503 67.8692C55.6322 68.2691 55.8262 68.8871 55.8262 69.7292V74.6974H54.3834V70.0382C54.3834 69.4445 54.2864 69.0446 54.0924 68.8325C53.8984 68.6205 53.6135 68.5114 53.2316 68.5114C53.0254 68.5114 52.8193 68.5478 52.6072 68.6144C52.395 68.6811 52.1828 68.8083 51.9828 68.984C51.813 69.1294 51.6796 69.3051 51.5827 69.5051C51.4796 69.705 51.4311 69.9352 51.4311 70.1897V74.6974H49.9762V70.0382C49.9762 69.4748 49.8792 69.0809 49.6791 68.8507C49.4791 68.6265 49.1942 68.5114 48.8244 68.5114C48.3879 68.5114 47.9817 68.6932 47.6059 69.0506C47.4604 69.1779 47.321 69.3475 47.1997 69.5535C47.0724 69.7595 47.0118 70.0443 47.0118 70.3957V74.6974H45.569V67.4996H45.5569Z" fill="#283477"/>
<path id="Vector_39" d="M60.4154 71.1227C60.4154 70.335 60.5609 69.6564 60.8519 69.0869C61.1429 68.5114 61.5551 68.0691 62.0886 67.754C62.622 67.439 63.2464 67.2814 63.9678 67.2814C65.0711 67.2814 65.9259 67.6207 66.5503 68.2993C67.1686 68.9779 67.4778 69.8988 67.4778 71.0681C67.4778 72.2375 67.1626 73.2008 66.526 73.8915C65.8895 74.5822 65.0226 74.9275 63.9254 74.9275C62.8281 74.9275 61.9552 74.5882 61.3369 73.9157C60.7246 73.2432 60.4154 72.3102 60.4154 71.1287M61.9249 71.0924C61.9249 71.88 62.0825 72.5162 62.3977 73.0009C62.713 73.4856 63.2282 73.7279 63.9375 73.7279C64.6468 73.7279 65.1681 73.4855 65.4834 72.9948C65.8047 72.504 65.9623 71.8679 65.9623 71.0802C65.9623 70.2926 65.8047 69.6867 65.4834 69.202C65.1621 68.7173 64.6468 68.475 63.9375 68.475C63.2282 68.475 62.7251 68.7173 62.4038 69.202C62.0825 69.6867 61.9249 70.3168 61.9249 71.0924Z" fill="#283477"/>
<path id="Vector_40" d="M69.5026 68.7058H68.3811V67.5547H69.5026V67.0154C69.5026 66.2217 69.7269 65.634 70.1694 65.2524C70.612 64.8707 71.1576 64.6828 71.8062 64.6828C72.0184 64.6828 72.2366 64.6949 72.4609 64.7252C72.6852 64.7555 72.9035 64.7979 73.1278 64.8646L72.9035 65.9612C72.758 65.9127 72.6185 65.8825 72.4852 65.8703C72.3579 65.8582 72.2245 65.8522 72.0972 65.8522C71.7759 65.8522 71.5031 65.937 71.2849 66.1006C71.0666 66.2702 70.9575 66.561 70.9575 66.9851V67.5547H72.7337V68.7058H70.9575V74.6979H69.5026V68.7058Z" fill="#283477"/>
<path id="Vector_41" d="M82.8087 72.0378C82.8087 71.7893 82.7663 71.5591 82.6754 71.3531C82.5905 71.1471 82.4268 70.9654 82.1843 70.8139C81.9419 70.6624 81.5903 70.5413 81.1295 70.4625L79.8686 70.2383C79.2018 70.1171 78.638 69.9475 78.1833 69.7354C77.7226 69.5173 77.3771 69.2205 77.1346 68.8327C76.8921 68.451 76.7708 67.9542 76.7708 67.3544C76.7708 66.7546 76.9345 66.2153 77.2558 65.8033C77.5771 65.3853 78.0257 65.0763 78.5895 64.8642C79.1533 64.6583 79.7898 64.5553 80.5051 64.5553C81.372 64.5553 82.0692 64.6764 82.5784 64.9248C83.0937 65.1672 83.4756 65.4883 83.7363 65.8882C83.9969 66.288 84.1667 66.7182 84.2515 67.1908L82.7966 67.4271C82.6572 66.9 82.4268 66.5001 82.1116 66.2275C81.7903 65.9548 81.2629 65.8155 80.5233 65.8155C79.6989 65.8155 79.129 65.9548 78.8017 66.2396C78.4804 66.5183 78.3167 66.8697 78.3167 67.2877C78.3167 67.73 78.4379 68.0693 78.6865 68.2935C78.929 68.5176 79.3715 68.6933 80.008 68.8145L81.3841 69.075C82.4268 69.2689 83.1967 69.59 83.6817 70.0444C84.1667 70.4988 84.4092 71.1592 84.4092 72.0256C84.4092 72.583 84.2697 73.0799 83.9909 73.5161C83.712 73.9584 83.2998 74.3037 82.7481 74.5642C82.1965 74.8248 81.5054 74.952 80.6749 74.952C79.4806 74.952 78.5228 74.7036 77.7954 74.2007C77.0679 73.7039 76.6557 72.9042 76.5526 71.8136H78.0803C78.1833 72.4619 78.4379 72.9344 78.8562 73.2253C79.2745 73.5221 79.8868 73.6676 80.6991 73.6676C81.2387 73.6676 81.6569 73.5948 81.9601 73.4434C82.2632 73.298 82.4814 73.098 82.6148 72.8496C82.7421 72.6012 82.8087 72.3286 82.8087 72.0317" fill="#283477"/>
<path id="Vector_42" d="M85.5187 72.7162C85.5187 72.2376 85.6217 71.8377 85.8218 71.5287C86.0279 71.2197 86.3007 70.9774 86.6462 70.8017C86.9918 70.626 87.3858 70.4988 87.8162 70.42C88.2527 70.3412 88.7013 70.2928 89.162 70.2746L90.3563 70.2322V69.9535C90.3563 69.39 90.235 68.9841 89.9986 68.7417C89.7561 68.4994 89.3681 68.3722 88.8347 68.3722C88.3012 68.3722 87.9314 68.457 87.6829 68.6327C87.4343 68.8084 87.2706 69.0568 87.1979 69.3658L85.8824 69.2264C86.0097 68.5539 86.331 68.0571 86.8342 67.742C87.3373 67.427 88.0284 67.2695 88.8953 67.2695C89.938 67.2695 90.6836 67.5118 91.1201 67.9965C91.5626 68.4812 91.7809 69.1658 91.7809 70.0565V74.6853H90.3926V73.7583C90.1259 74.0613 89.7985 74.3218 89.4106 74.5339C89.0226 74.7459 88.5437 74.855 87.9799 74.855C87.2524 74.855 86.6584 74.6732 86.2037 74.3157C85.749 73.9522 85.5247 73.4191 85.5247 72.7102M86.9615 72.6617C86.9615 72.9949 87.0645 73.2615 87.2646 73.4615C87.4646 73.6614 87.798 73.7583 88.2466 73.7583C88.8771 73.7583 89.3863 73.6008 89.7743 73.2858C90.1623 72.9707 90.3563 72.5163 90.3563 71.9104V71.1895L89.2469 71.2319C88.6528 71.25 88.1921 71.3167 87.8587 71.4318C87.5252 71.5469 87.2949 71.7044 87.1555 71.9104C87.0221 72.1164 86.9554 72.3648 86.9554 72.6617" fill="#283477"/>
<path id="Vector_43" d="M93.4843 72.2861V67.4997H94.9392V72.0195C94.9392 72.6193 95.0423 73.0495 95.2423 73.304C95.4484 73.5584 95.7697 73.6857 96.2123 73.6857C96.7215 73.6857 97.1701 73.5039 97.5581 73.1464C97.7642 72.9647 97.9157 72.7647 98.0248 72.5587C98.134 72.3527 98.1825 72.0862 98.1825 71.759V67.4997H99.6374V74.6975H98.2067V73.6311C97.8612 74.0734 97.4974 74.4006 97.0973 74.6066C96.6972 74.8126 96.2668 74.9156 95.8061 74.9156C94.9998 74.9156 94.4118 74.6914 94.036 74.2491C93.6601 73.8068 93.4722 73.1464 93.4722 72.28" fill="#283477"/>
<path id="Vector_44" d="M101.195 71.1471C101.195 69.9535 101.474 69.0144 102.044 68.3177C102.608 67.627 103.384 67.2756 104.36 67.2756C104.736 67.2756 105.117 67.3543 105.487 67.5058C105.863 67.6573 106.209 67.936 106.524 68.3298V64.7915H107.979V74.6914H106.56V73.7099C106.263 74.0977 105.93 74.3945 105.554 74.6066C105.178 74.8126 104.736 74.9216 104.214 74.9216C103.529 74.9216 102.965 74.7581 102.517 74.4309C102.068 74.1037 101.735 73.6554 101.517 73.0859C101.298 72.5163 101.189 71.8741 101.189 71.1531M102.693 71.1047C102.693 71.759 102.784 72.2801 102.965 72.6557C103.147 73.0374 103.378 73.304 103.657 73.4676C103.941 73.6311 104.232 73.7099 104.536 73.7099C105.148 73.7099 105.639 73.5039 106.009 73.098C106.378 72.692 106.566 72.1044 106.566 71.3349V70.8926C106.566 70.0504 106.391 69.4385 106.033 69.0447C105.675 68.6569 105.208 68.4631 104.626 68.4631C104.081 68.4631 103.62 68.663 103.25 69.0689C102.881 69.4688 102.693 70.1474 102.693 71.0986" fill="#283477"/>
<path id="Vector_45" d="M109.773 64.7855H111.258V66.2699H109.773V64.7855ZM109.797 67.4998H111.252V74.6976H109.797V67.4998Z" fill="#283477"/>
<path id="Vector_46" d="M122.037 72.1043H117.945L116.987 74.6974H115.405L119.176 64.7975H120.867L124.626 74.6974H122.989L122.031 72.1043H122.037ZM119.982 66.3667L118.369 70.8077H121.588L119.976 66.3667H119.982Z" fill="#283477"/>
<path id="Vector_47" d="M125.699 67.5003H127.129V68.5666C127.396 68.191 127.705 67.8941 128.057 67.6881C128.408 67.4821 128.79 67.3791 129.209 67.3791C129.336 67.3791 129.457 67.3852 129.56 67.3973C129.663 67.4094 129.766 67.4276 129.857 67.4458L129.675 68.7484C129.584 68.7302 129.487 68.712 129.384 68.6999C129.281 68.6878 129.178 68.6817 129.063 68.6817C128.839 68.6817 128.621 68.7181 128.396 68.7908C128.172 68.8635 127.96 68.9847 127.76 69.1543C127.566 69.33 127.414 69.53 127.299 69.7481C127.19 69.9722 127.135 70.2267 127.135 70.5236V74.698H125.693V67.5003H125.699Z" fill="#283477"/>
<path id="Vector_48" d="M130.5 72.7162C130.5 72.2376 130.603 71.8377 130.803 71.5287C131.009 71.2197 131.282 70.9774 131.627 70.8017C131.973 70.626 132.367 70.4988 132.797 70.42C133.234 70.3412 133.682 70.2928 134.143 70.2746L135.337 70.2322V69.9535C135.337 69.39 135.216 68.9841 134.98 68.7417C134.737 68.4994 134.349 68.3722 133.816 68.3722C133.282 68.3722 132.912 68.457 132.664 68.6327C132.415 68.8084 132.252 69.0568 132.179 69.3658L130.863 69.2264C130.991 68.5539 131.312 68.0571 131.815 67.742C132.318 67.427 133.009 67.2695 133.876 67.2695C134.919 67.2695 135.665 67.5118 136.101 67.9965C136.544 68.4812 136.762 69.1658 136.762 70.0565V74.6853H135.374V73.7583C135.107 74.0613 134.78 74.3218 134.392 74.5339C134.004 74.7459 133.525 74.855 132.961 74.855C132.234 74.855 131.639 74.6732 131.185 74.3157C130.73 73.9522 130.506 73.4191 130.506 72.7102M131.943 72.6617C131.943 72.9949 132.046 73.2615 132.246 73.4615C132.446 73.6614 132.779 73.7583 133.234 73.7583C133.864 73.7583 134.373 73.6008 134.761 73.2858C135.149 72.9707 135.343 72.5163 135.343 71.9104V71.1895L134.234 71.2319C133.64 71.25 133.179 71.3167 132.846 71.4318C132.512 71.5469 132.282 71.7044 132.143 71.9104C132.009 72.1164 131.943 72.3648 131.943 72.6617Z" fill="#283477"/>
<path id="Vector_49" d="M139.939 74.6974H138.52V64.7975H139.963V68.4448C140.248 68.0752 140.587 67.7905 140.969 67.5845C141.351 67.3785 141.794 67.2815 142.297 67.2815C142.97 67.2815 143.533 67.439 143.982 67.7541C144.431 68.0692 144.764 68.5054 144.988 69.0688C145.213 69.6323 145.322 70.2866 145.322 71.0379C145.322 72.2375 145.037 73.1888 144.473 73.8795C143.909 74.5701 143.133 74.9216 142.157 74.9216C141.751 74.9216 141.351 74.8367 140.963 74.6671C140.575 74.4974 140.23 74.2066 139.939 73.8007V74.7034V74.6974ZM139.963 70.844V71.2863C139.963 72.1467 140.145 72.7707 140.502 73.1524C140.86 73.5341 141.327 73.728 141.891 73.728C142.454 73.728 142.903 73.522 143.267 73.1161C143.63 72.7101 143.806 72.0316 143.806 71.0803C143.806 70.426 143.715 69.9049 143.546 69.5293C143.37 69.1537 143.145 68.881 142.867 68.7174C142.588 68.5539 142.291 68.4751 141.975 68.4751C141.393 68.4751 140.915 68.675 140.533 69.081C140.151 69.4808 139.963 70.0746 139.963 70.8501" fill="#283477"/>
<path id="Vector_50" d="M146.874 64.7855H148.359V66.2699H146.874V64.7855ZM146.904 67.4998H148.359V74.6976H146.904V67.4998Z" fill="#283477"/>
<path id="Vector_51" d="M149.735 72.7162C149.735 72.2376 149.838 71.8377 150.038 71.5287C150.244 71.2197 150.517 70.9774 150.863 70.8017C151.208 70.626 151.602 70.4988 152.033 70.42C152.469 70.3412 152.918 70.2928 153.378 70.2746L154.573 70.2322V69.9535C154.573 69.39 154.451 68.9841 154.215 68.7417C153.978 68.4994 153.584 68.3722 153.051 68.3722C152.518 68.3722 152.148 68.457 151.899 68.6327C151.651 68.8084 151.487 69.0568 151.414 69.3658L150.099 69.2264C150.226 68.5539 150.547 68.0571 151.05 67.742C151.554 67.427 152.245 67.2695 153.112 67.2695C154.154 67.2695 154.9 67.5118 155.336 67.9965C155.779 68.4812 155.997 69.1658 155.997 70.0565V74.6853H154.609V73.7583C154.342 74.0613 154.015 74.3218 153.627 74.5339C153.239 74.7459 152.76 74.855 152.196 74.855C151.463 74.855 150.875 74.6732 150.42 74.3157C149.965 73.9522 149.741 73.4191 149.741 72.7102M151.178 72.6617C151.178 72.9949 151.281 73.2615 151.481 73.4615C151.687 73.6614 152.014 73.7583 152.469 73.7583C153.099 73.7583 153.609 73.6008 153.997 73.2858C154.385 72.9707 154.579 72.5163 154.579 71.9104V71.1895L153.469 71.2319C152.875 71.25 152.414 71.3167 152.081 71.4318C151.748 71.5469 151.517 71.7044 151.378 71.9104C151.244 72.1164 151.178 72.3648 151.178 72.6617Z" fill="#283477"/>
</g>
</g>
</svg>
