<svg width="32" height="32" viewBox="0 0 32 32" fill="none" xmlns="http://www.w3.org/2000/svg">
<g id="Trailing icon">
<path id="Vector" d="M3.14415 31.2985C5.56291 31.2843 7.98893 31.256 10.4077 31.1426C11.7805 31.2702 13.117 30.2642 13.008 28.9112C12.9645 27.8628 12.7102 22.7623 12.703 21.8272C12.8047 20.6371 12.1146 19.6524 10.9161 19.6453C8.49738 19.6311 6.07136 19.6028 3.6526 19.4894C3.12236 19.4611 2.78823 19.4328 2.41053 19.5603C1.66965 19.794 1.08857 20.5095 1.05951 21.3242L0.798026 26.9914C0.82708 27.8061 0.594646 29.0316 0.899715 29.7896C1.2411 30.668 2.16357 31.2985 3.14415 31.2914V31.2985ZM3.14415 31.2985C2.17084 31.3197 1.21931 30.7105 0.848871 29.8179C0.507484 29.0458 0.66728 27.8202 0.594645 26.9985L0.333157 21.3313C0.224204 19.5744 1.90208 18.2568 3.65986 18.3914C6.07862 18.2781 8.49738 18.2497 10.9234 18.2356C12.8628 18.2143 14.3155 20.0137 14.0322 21.8272C14.0322 22.7339 13.778 27.8911 13.7271 28.9112C13.6981 30.0021 12.9281 30.9939 11.9185 31.3268C10.9161 31.6385 9.95735 31.3623 8.95498 31.3977C7.01562 31.3339 5.08352 31.3127 3.14415 31.2985Z" fill="white"/>
<path id="Vector_2" d="M29.1839 18.9369C26.7652 18.9511 24.3391 18.9794 21.9204 19.0927C20.5476 18.9652 19.2111 19.9712 19.32 21.3242C19.3636 22.3726 19.6178 27.4731 19.6251 28.4082C19.5234 29.5983 20.2135 30.583 21.4119 30.5901C23.8307 30.6043 26.2567 30.6326 28.6755 30.746C29.2057 30.7743 29.5398 30.8026 29.9175 30.6751C30.6584 30.4413 31.2395 29.7259 31.2686 28.9112L31.5301 23.244C31.501 22.4293 31.7334 21.2038 31.4284 20.4458C31.087 19.5674 30.1645 18.9369 29.1839 18.944V18.9369ZM29.1839 18.9369C30.1572 18.9156 31.1088 19.5249 31.4792 20.4175C31.8206 21.1896 31.6608 22.4151 31.7334 23.2369L31.9949 28.9041C32.1039 30.6609 30.426 31.9786 28.6682 31.844C26.2495 31.9573 23.8307 31.9857 21.4047 31.9998C19.4653 32.0211 18.0126 30.2217 18.2959 28.4082C18.2959 27.5015 18.5501 22.3443 18.601 21.3242C18.63 20.2333 19.3999 19.2415 20.4096 18.9086C21.4119 18.5969 22.3707 18.8731 23.3731 18.8377C25.3125 18.9015 27.2446 18.9227 29.1839 18.9369Z" fill="white"/>
<path id="Vector_3" d="M10.9234 0.178407C8.50467 0.192575 6.07865 0.220911 3.65989 0.334256C2.28708 0.206743 0.950585 1.21268 1.05954 2.56573C1.10312 3.61416 1.35735 8.71465 1.36461 9.64974C1.26292 10.8399 1.95296 11.8245 3.15144 11.8316C5.5702 11.8458 7.99622 11.8741 10.415 11.9875C10.9452 12.0158 11.2793 12.0441 11.657 11.9166C12.3979 11.6829 12.979 10.9674 13.0081 10.1527L13.2696 4.48549C13.2405 3.67083 13.4729 2.4453 13.1679 1.68731C12.8265 0.808887 11.904 0.178413 10.9234 0.185497V0.178407ZM10.9234 0.178407C11.8967 0.157154 12.8483 0.766388 13.2187 1.65897C13.5601 2.43113 13.4003 3.65666 13.4729 4.47841L13.7344 10.1456C13.8434 11.9025 12.1655 13.2201 10.4077 13.0855C7.98896 13.1988 5.5702 13.2272 3.14418 13.2413C1.20481 13.2626 -0.247899 11.4633 0.0353793 9.64974C0.0353793 8.74299 0.289605 3.58583 0.340449 2.56573C0.369504 1.47479 1.13944 0.483024 2.14907 0.150075C3.15144 -0.161622 4.11023 0.114651 5.1126 0.0792307C7.05196 0.142987 8.98406 0.164238 10.9234 0.178407Z" fill="white"/>
<path id="Vector_4" d="M29.1839 0.178407C26.7652 0.192575 24.3391 0.220911 21.9204 0.334256C20.5476 0.206743 19.2111 1.21268 19.32 2.56573C19.3636 3.61416 19.6178 8.71465 19.6251 9.64974C19.5234 10.8399 20.2135 11.8245 21.4119 11.8316C23.8307 11.8458 26.2567 11.8741 28.6755 11.9875C29.2057 12.0158 29.5398 12.0441 29.9175 11.9166C30.6584 11.6829 31.2395 10.9674 31.2686 10.1527L31.5301 4.48549C31.501 3.67083 31.7334 2.4453 31.4284 1.68731C31.087 0.808887 30.1645 0.178413 29.1839 0.185497V0.178407ZM29.1839 0.178407C30.1572 0.157154 31.1088 0.766388 31.4792 1.65897C31.8206 2.43113 31.6608 3.65666 31.7334 4.47841L31.9949 10.1456C32.1039 11.9025 30.426 13.2201 28.6682 13.0855C26.2495 13.1988 23.8307 13.2272 21.4047 13.2413C19.4653 13.2626 18.0126 11.4633 18.2959 9.64974C18.2959 8.74299 18.5501 3.58583 18.601 2.56573C18.63 1.47479 19.3999 0.483024 20.4096 0.150075C21.4119 -0.161622 22.3707 0.114651 23.3731 0.0792307C25.3125 0.142987 27.2446 0.164238 29.1839 0.178407Z" fill="white"/>
</g>
</svg>
