<svg width="32" height="32" viewBox="0 0 32 32" fill="none" xmlns="http://www.w3.org/2000/svg">
<g id="Trailing icon">
<path id="Vector" d="M4.33117 0.100014L16.9373 0.0446402L20.0907 0.0129706C21.1468 -0.0582163 22.2693 0.15535 23.1407 0.859311C24.5291 1.85593 25.0682 3.72263 24.9427 5.43112L24.9574 7.11588C25.0018 11.5928 25.1199 23.0539 25.1051 27.3884C25.0534 29.8799 22.9709 32.0313 20.6372 31.9997L8.03105 31.9443C6.90115 31.8731 4.34594 32.055 3.24558 31.7465C1.62088 31.3036 0.313736 29.7771 0.0478763 28.0053C-0.107208 25.751 0.166037 13.5939 0.143882 11.0865L0.180806 4.33167C0.239886 2.02995 2.18214 0.0525557 4.33117 0.100014ZM4.33117 0.100014C2.19691 0.0762846 0.276811 2.04577 0.232501 4.33167L0.247271 11.0786C0.321121 13.578 0.284197 25.664 0.476207 27.9104C0.749451 29.4844 1.93105 30.8132 3.37851 31.1771C4.3164 31.4223 7.01192 31.2245 8.03105 31.2641L20.6372 31.2087C22.5942 31.2561 24.3666 29.4527 24.4183 27.3567C24.4257 23.0934 24.5365 11.5374 24.5882 7.11588C24.5439 6.16672 24.699 4.68758 24.5587 3.77006C24.3962 2.70226 23.8202 1.70564 23.0004 1.05705C22.1659 0.368911 21.132 0.14746 20.0907 0.187008L16.9373 0.155339L4.33117 0.100014Z" fill="white"/>
<path id="Vector_2" d="M24.7728 9.09329C27.136 8.98255 29.4992 8.89551 31.8624 8.85596V9.09329L31.9584 14.717C32.0175 20.1747 32.0101 26.1702 31.9584 31.5962V31.9364H31.6409C28.2512 31.8494 23.2663 31.7782 19.9209 31.5962C23.2515 31.438 28.2659 31.3115 31.6409 31.2561L31.3233 31.5962C31.2716 26.1781 31.2642 20.1668 31.3233 14.717L31.4193 9.09329L31.6409 9.33057C29.3515 9.28311 27.0548 9.20402 24.7654 9.09329H24.7728Z" fill="white"/>
<path id="Vector_3" d="M4.8407 8.69781L20.6446 9.0933L4.8407 9.48878V8.69781Z" fill="white"/>
<path id="Vector_4" d="M4.8407 15.4526L20.6446 15.8481L4.8407 16.2436V15.4526Z" fill="white"/>
<path id="Vector_5" d="M5.40942 22.3262L14.7145 22.603L5.40942 22.8878V22.3262Z" fill="white"/>
</g>
</svg>
