<svg width="32" height="32" viewBox="0 0 32 32" fill="none" xmlns="http://www.w3.org/2000/svg">
<g id="Trailing icon">
<path id="Vector" d="M31.9919 13.726C27.0137 9.35514 21.9786 5.26802 17.0574 0.966188L17.7245 0.973855C13.942 4.3095 6.26335 10.9578 2.43213 14.2397L1.93594 13.0282C2.51347 13.0282 4.16472 13.0282 4.70158 13.0282L4.68531 13.7413L4.41688 27.9427C4.50635 29.7601 6.63752 30.7953 8.44331 30.5959H9.38688L16.9517 30.6572L24.5165 30.7416C25.7122 30.7416 26.8998 30.9103 27.9654 30.3582C28.9578 29.9058 29.7143 28.9856 29.7875 27.9504L29.8932 13.7183V13.6493C30.5684 13.6723 31.2517 13.7106 31.9756 13.7183L31.9919 13.726ZM31.9919 13.726C31.3493 13.726 30.6741 13.772 29.9827 13.795L30.0559 13.726L30.4138 20.8497C30.5277 23.2345 30.6579 25.5733 30.7148 28.0041C30.4545 31.102 27.3716 32.0375 24.5328 31.8305L16.968 31.9148L9.40315 31.9762H8.45958C5.90544 32.2139 3.08287 30.6573 2.92018 28.0194C2.89578 27.4673 2.93645 26.7388 2.93645 26.1867C2.96899 22.9661 3.14794 16.9773 3.21302 13.703L3.95323 14.4161H1.94408L0 14.4084L1.44789 13.2045C5.49873 9.81523 13.3238 3.33564 17.4235 0C22.3528 4.50887 27.152 9.26312 32 13.726H31.9919Z" fill="white"/>
<path id="Vector_2" d="M16.9598 26.2174C18.038 26.2174 18.912 25.3934 18.912 24.377C18.912 23.3606 18.038 22.5367 16.9598 22.5367C15.8816 22.5367 15.0076 23.3606 15.0076 24.377C15.0076 25.3934 15.8816 26.2174 16.9598 26.2174Z" fill="white"/>
</g>
</svg>
