<svg width="32" height="32" viewBox="0 0 32 32" fill="none" xmlns="http://www.w3.org/2000/svg">
<g id="Trailing icon">
<path id="Vector" d="M0 15.9977C0.02279 1.95601 16.9558 -5.28101 27.1657 4.48972C33.6076 10.513 33.6152 21.4823 27.1657 27.5056C16.9254 37.2763 0.0531767 30.0621 0 15.9977ZM0 15.9977C0.0607733 29.6979 16.7506 36.3736 26.2389 26.5801C31.9136 20.9285 31.9136 11.0668 26.2389 5.41521C16.7506 -4.38587 0.0531767 2.30496 0 15.9977Z" fill="white"/>
<path id="Vector_2" d="M15.2769 24.8126L16.0365 13.4867L16.7962 24.8126H15.2769Z" fill="white"/>
<path id="Vector_3" d="M15.6415 10.4978C16.3338 10.4978 16.895 9.93743 16.895 9.24614C16.895 8.55485 16.3338 7.99445 15.6415 7.99445C14.9493 7.99445 14.3881 8.55485 14.3881 9.24614C14.3881 9.93743 14.9493 10.4978 15.6415 10.4978Z" fill="white"/>
</g>
</svg>
