<svg width="19" height="13" viewBox="0 0 19 13" fill="none" xmlns="http://www.w3.org/2000/svg">
<g id="elements">
<path id="Icon" d="M0.750397 6.49951C0.750399 6.87307 0.916051 7.21963 1.07292 7.47986C1.24219 7.76068 1.46984 8.0506 1.71958 8.33328C2.22057 8.90035 2.87426 9.50933 3.50863 10.0602C4.14672 10.6143 4.78262 11.1245 5.25765 11.4953C5.49556 11.681 5.69403 11.8324 5.83344 11.9377C5.90316 11.9904 5.95815 12.0316 5.99598 12.0598L6.03955 12.0922L6.05111 12.1007L6.05512 12.1037C6.38862 12.3493 6.85855 12.2784 7.10422 11.9449C7.34987 11.6115 7.27868 11.142 6.94521 10.8963L6.93248 10.8869L6.89243 10.8571C6.85702 10.8307 6.80459 10.7915 6.7376 10.7409C6.60357 10.6396 6.41142 10.493 6.18059 10.3128C5.71812 9.95187 5.10403 9.45898 4.49213 8.92762C3.87651 8.39303 3.28021 7.83421 2.84371 7.34014C2.8161 7.30889 2.78938 7.27818 2.76356 7.24802L17.5004 7.24801C17.9146 7.24801 18.2504 6.91223 18.2504 6.49802C18.2504 6.0838 17.9146 5.74801 17.5004 5.74801L2.7661 5.74802C2.79113 5.71881 2.817 5.68909 2.84371 5.65886C3.28021 5.16479 3.87651 4.60596 4.49213 4.07137C5.10403 3.54002 5.71812 3.04712 6.18058 2.68615C6.41142 2.50598 6.60356 2.35938 6.73759 2.25813C6.80459 2.20752 6.85701 2.16828 6.89243 2.14188L6.93248 2.11211L6.94521 2.10269C7.27867 1.85702 7.34986 1.38754 7.10421 1.05406C6.85855 0.720556 6.38862 0.649666 6.05512 0.895328L6.05111 0.898288L6.03954 0.906841L5.99598 0.939226C5.95815 0.967421 5.90316 1.00859 5.83343 1.06126C5.69403 1.16657 5.49555 1.31801 5.25764 1.50371C4.78262 1.87448 4.14672 2.38469 3.50863 2.9388C2.87426 3.48966 2.22057 4.09865 1.71958 4.66572C1.46984 4.9484 1.24219 5.23832 1.07292 5.51914C0.916994 5.7778 0.752389 6.12179 0.750414 6.49277" fill="#2C3A82"/>
</g>
</svg>
