<svg width="32" height="32" viewBox="0 0 32 32" fill="none" xmlns="http://www.w3.org/2000/svg">
<g id="Trailing icon">
<path id="Vector" d="M2.15369 32C6.82748 24.3934 16.918 21.3994 24.6717 26.0951C27.1293 27.5602 29.263 29.5882 30.7616 32C29.0598 29.7545 26.888 27.8672 24.4304 26.5238C16.7212 22.1863 7.2847 25.046 2.15369 32Z" fill="white"/>
<path id="Vector_2" d="M12.7079 12.8269C14.2446 16.3455 15.5655 19.9408 16.8102 23.5682L16.2386 23.5554C17.2801 21.1179 18.3533 18.6933 19.5535 16.3263C19.3566 16.9596 19.128 17.5866 18.9184 18.2135C18.1691 20.3375 17.3563 22.4486 16.5117 24.5342C15.1083 20.6765 13.7874 16.7933 12.7142 12.8269H12.7079Z" fill="white"/>
<path id="Vector_3" d="M12.765 9.9992C12.8222 5.04119 8.58653 0.620561 3.66508 0.569382C2.9221 0.518202 1.08687 0.594964 0.312139 0.582169L0.604251 0.287893L0.629653 2.90444C0.489947 7.19713 3.46187 11.3363 7.62764 12.4238C9.27871 12.9292 11.0441 12.7501 12.765 12.8077C12.7079 12.9804 12.7777 9.95442 12.765 9.9992ZM12.765 9.9992L12.7904 12.8333V12.8589H12.765L10.1677 12.8845C7.52604 12.9804 4.90973 12.0016 2.97925 10.1528C1.04242 8.2975 -0.0371261 5.59777 0.00097548 2.91085L0.0263771 0.294296V0H0.318489C1.66474 0.0447821 3.52537 -0.0703679 4.83353 0.223914C9.36761 1.04279 12.8412 5.39305 12.765 10.0056V9.9992Z" fill="white"/>
<path id="Vector_4" d="M29.1297 4.22872C24.2082 4.17114 19.8202 8.43823 19.7694 13.3962C19.7186 14.1447 19.7948 15.9936 19.7821 16.7741L19.49 16.4798L22.0872 16.4542C26.3483 16.595 30.4569 13.601 31.5364 9.40425C32.0381 7.74091 31.8603 5.96243 31.9175 4.22872C32.0889 4.2863 29.0852 4.21593 29.1297 4.22872ZM29.1297 4.22872L31.9429 4.20312H31.9683V4.22872L31.9937 6.84527C32.0889 9.50661 31.1173 12.1424 29.2821 14.0872C27.4405 16.0384 24.7607 17.126 22.0936 17.0876L19.4963 17.062H19.2042V16.7677C19.2487 15.4114 19.1344 13.537 19.4265 12.2191C20.2393 7.65134 24.5575 4.15195 29.136 4.22872H29.1297Z" fill="white"/>
</g>
</svg>
