<svg width="32" height="41" viewBox="0 0 32 41" fill="none" xmlns="http://www.w3.org/2000/svg">
<g id="Trailing icon">
<path id="Vector" d="M16 41C1.8941 41.0173 -5.30947 24.2899 4.56997 14.3972C10.6305 8.20346 21.3606 8.20346 27.43 14.3972C37.3095 24.2899 30.1059 41.0173 16 41ZM16 41C29.9198 40.9047 36.7778 24.4545 26.8895 14.917C21.1391 9.14768 10.8521 9.14768 5.1016 14.917C-4.78671 24.4545 2.07131 40.9047 15.9911 41H16Z" fill="white"/>
<path id="Vector_2" d="M16.0001 31.4798C21.2012 31.5491 23.8239 25.0522 20.005 21.6478C17.843 19.5774 14.1482 19.5774 11.9951 21.6478C8.18511 25.0435 10.799 31.5491 16.0001 31.4798ZM16.0001 31.4798C10.604 31.5664 7.65348 24.9309 11.4546 21.1194C13.7849 18.6159 18.2152 18.6159 20.5455 21.1194C24.3466 24.9309 21.3961 31.5578 16.0001 31.4712V31.4798Z" fill="white"/>
<path id="Vector_3" d="M4.4371 1.81915L9.95718 11.3133L3.68396 2.27827L4.4371 1.81915Z" fill="white"/>
<path id="Vector_4" d="M28.6617 2.06168L23.053 11.5039L27.8819 1.65454L28.6617 2.06168Z" fill="white"/>
<path id="Vector_5" d="M20.2176 0.398471L14.7684 9.9273L19.429 0L20.2176 0.398471Z" fill="white"/>
<path id="Vector_6" d="M13.2533 0.389832L16.3988 6.54891L12.4824 0.831605L13.2533 0.389832Z" fill="white"/>
</g>
</svg>
