<svg width="32" height="32" viewBox="0 0 32 32" fill="none" xmlns="http://www.w3.org/2000/svg">
<g id="Trailing icon">
<path id="Vector" d="M11.2568 24.3078C6.56351 24.8307 1.55993 22.087 0.303217 17.76C-1.0621 13.3327 2.36671 8.69051 6.9126 7.27923L6.68763 7.52994C7.35478 3.40355 11.4119 -0.0136259 15.9811 0.000701886C20.558 -0.0566091 24.6229 3.40355 25.2435 7.52994L25.0108 7.27923C29.6265 8.61887 32.9235 13.2897 31.7676 17.717C30.7436 22.0941 25.8098 25.06 21.101 24.5871C32.4192 24.8092 35.6308 11.5704 24.8014 7.88097L24.5997 7.82369C24.0877 3.9337 20.271 0.638287 15.9811 0.71709C11.7067 0.674106 7.89004 3.9337 7.3315 7.82369L7.13757 7.88814C-3.88583 11.8498 -0.0846559 24.6731 11.2568 24.3149V24.3078Z" fill="white"/>
<path id="Vector_2" d="M16.6483 10.6677L16.2604 31.2209L15.8726 10.6677H16.6483Z" fill="white"/>
<path id="Vector_3" d="M15.9889 18.5122L10.7759 13.1895L16.5397 18.0036L15.9889 18.5122Z" fill="white"/>
<path id="Vector_4" d="M12.4437 31.6364C15.027 31.1421 17.6257 31.1349 20.209 31.6221C17.6257 32.1236 15.027 32.1236 12.4437 31.6364Z" fill="white"/>
<path id="Vector_5" d="M16.0587 20.5109L21.5588 16.6137L16.5086 20.998L16.0587 20.5109Z" fill="white"/>
</g>
</svg>
